<?xml version="1.0" encoding="UTF-8" standalone="no"?> <svg xmlns:dc="http://purl.org/dc/elements/1.1/" xmlns:cc="http://creativecommons.org/ns#" xmlns:rdf="http://www.w3.org/1999/02/22-rdf-syntax-ns#" xmlns:svg="http://www.w3.org/2000/svg" xmlns="http://www.w3.org/2000/svg" xmlns:sodipodi="http://sodipodi.sourceforge.net/DTD/sodipodi-0.dtd" xmlns:inkscape="http://www.inkscape.org/namespaces/inkscape" width="258" height="301" viewBox="0 0 258 301" id="svg74" sodipodi:docname="9d1dd9cee0c92ee1d7865d7a0ba428d7.svg" style="fill:none" inkscape:version="0.92.2 2405546, 2018-03-11"><metadata id="metadata80"></metadata><defs id="defs78"></defs><rect x="55" y="39" width="149" height="224" rx="2" id="rect4" style="stroke:#7cc2b8;stroke-width:2;stroke-linecap:round;stroke-linejoin:round;stroke-dasharray:4, 8"></rect><rect x="7.5" y="6.5" width="39" height="23" rx="1.5" id="rect6" style="stroke:#7d4199"></rect><path d="m 20.2063,9.8 c -1.5,0 -2.682,1.134 -2.682,2.598 0,1.434 1.122,2.502 2.604,2.502 0.462,0 1.0557,-0.168 1.4097,-0.432 l -0.27,-0.462 c -0.3357,0.246 -0.7917,0.36 -1.1397,0.36 -1.152,0 -2.04,-0.834 -2.04,-1.968 0,-1.152 0.942,-2.076 2.118,-2.076 1.2717,0 2.0457,0.9 2.0457,2.052 0,0.588 -0.252,0.996 -0.516,0.996 -0.144,0 -0.246,-0.078 -0.246,-0.3 v -2.04 h -0.7017 v 0.336 c -0.042,-0.078 -0.366,-0.402 -0.858,-0.402 -0.768,0 -1.26,0.642 -1.26,1.416 0,0.834 0.642,1.392 1.332,1.392 0.366,0 0.714,-0.15 0.948,-0.492 l 0.012,0.09 c 0.0777,0.324 0.3357,0.468 0.7017,0.468 0.672,0 1.146,-0.582 1.146,-1.482 C 22.81,10.88 21.7,9.8 20.2063,9.8 Z m -0.138,1.818 c 0.414,0 0.672,0.33 0.672,0.738 0,0.426 -0.246,0.774 -0.66,0.774 -0.39,0 -0.642,-0.36 -0.642,-0.78 0,-0.402 0.252,-0.732 0.63,-0.732 z m 5.1577,1.524 c -0.168,0.078 -0.312,0.12 -0.432,0.12 -0.198,0.006 -0.312,-0.102 -0.312,-0.372 v -1.332 h 0.876 v -0.642 h -0.876 v -0.888 h -0.918 v 0.888 h -0.45 v 0.636 h 0.45 v 1.494 c 0,0.666 0.438,0.996 1.014,0.996 0.3,0 0.6,-0.084 0.84,-0.222 z m 2.183,-2.4 c -1.038,0 -1.734,0.654 -1.734,1.644 0,0.984 0.696,1.65 1.734,1.65 1.032,0 1.728,-0.666 1.728,-1.65 0,-0.99 -0.696,-1.644 -1.728,-1.644 z m 0,0.768 c 0.474,0 0.804,0.36 0.804,0.888 0,0.528 -0.33,0.888 -0.804,0.888 -0.48,0 -0.804,-0.36 -0.804,-0.888 0,-0.528 0.324,-0.888 0.804,-0.888 z m 4.313,-0.768 c -0.438,0 -0.792,0.18 -1.02,0.504 v -0.474 h -0.924 v 4.392 h 0.924 v -1.632 c 0.234,0.324 0.588,0.504 1.038,0.504 0.906,0 1.5,-0.654 1.5,-1.632 0,-0.996 -0.612,-1.662 -1.518,-1.662 z m -0.216,2.526 c -0.474,0 -0.804,-0.36 -0.804,-0.894 0,-0.522 0.33,-0.888 0.804,-0.888 0.474,0 0.798,0.372 0.798,0.888 0,0.528 -0.324,0.894 -0.798,0.894 z M 35.295,12.47 V 11.858 H 33.747 V 12.47 Z M 21.64,20 V 15.548 H 20.7162 V 20 Z m 2.313,-3.258 c -0.984,0 -1.662,0.66 -1.662,1.656 0,0.978 0.654,1.638 1.686,1.638 0.582,0 1.056,-0.21 1.38,-0.57 l -0.486,-0.492 c -0.222,0.222 -0.51,0.342 -0.816,0.342 -0.414,0 -0.726,-0.24 -0.834,-0.648 h 2.316 c 0.078,-1.176 -0.45,-1.926 -1.584,-1.926 z m -0.75,1.38 c 0.072,-0.426 0.348,-0.702 0.756,-0.702 0.426,0 0.702,0.276 0.714,0.702 z m 4.379,-1.854 c 0.132,0 0.282,0.048 0.402,0.138 l 0.33,-0.672 c -0.228,-0.15 -0.546,-0.228 -0.846,-0.228 -0.648,0 -1.188,0.384 -1.188,1.104 v 0.306 h -0.432 v 0.642 H 26.28 V 20 h 0.918 v -2.442 h 0.762 v -0.642 h -0.762 v -0.27 c 0,-0.258 0.168,-0.378 0.384,-0.378 z m 2.639,2.874 c -0.168,0.078 -0.312,0.12 -0.432,0.12 -0.198,0.006 -0.312,-0.102 -0.312,-0.372 v -1.332 h 0.876 v -0.642 h -0.876 v -0.888 h -0.918 v 0.888 h -0.45 v 0.636 h 0.45 v 1.494 c 0,0.666 0.438,0.996 1.014,0.996 0.3,0 0.6,-0.084 0.84,-0.222 z m 2.194,-0.672 v -0.612 h -1.548 v 0.612 z m -13.923,4.272 c -0.99,0 -1.656,0.666 -1.656,1.656 0,0.978 0.666,1.638 1.644,1.638 0.66,0 1.164,-0.264 1.434,-0.714 L 19.278,24.89 c -0.162,0.252 -0.42,0.378 -0.75,0.378 -0.45,0 -0.768,-0.354 -0.768,-0.876 0,-0.516 0.318,-0.864 0.768,-0.864 0.318,-0.006 0.564,0.126 0.738,0.342 l 0.624,-0.45 c -0.288,-0.432 -0.78,-0.678 -1.398,-0.678 z m 3.353,0 c -1.0376,0 -1.7336,0.654 -1.7336,1.644 0,0.984 0.696,1.65 1.7336,1.65 1.032,0 1.728,-0.666 1.728,-1.65 0,-0.99 -0.696,-1.644 -1.728,-1.644 z m 0,0.768 c 0.474,0 0.804,0.36 0.804,0.888 0,0.528 -0.33,0.888 -0.804,0.888 -0.48,0 -0.804,-0.36 -0.804,-0.888 0,-0.528 0.324,-0.888 0.804,-0.888 z m 3.263,-0.738 H 24.184 V 26 h 0.924 v -1.554 c 0,-0.546 0.408,-0.9 1.068,-0.84 v -0.87 c -0.48,0.006 -0.846,0.222 -1.068,0.618 z m 3.612,-0.036 c -0.504,0.006 -0.888,0.198 -1.116,0.6 V 22.772 H 26.68 V 26 h 0.924 v -1.59 c 0,-0.474 0.276,-0.822 0.738,-0.828 0.396,0 0.636,0.252 0.636,0.66 V 26 h 0.924 v -2.028 c 0,-0.756 -0.462,-1.236 -1.182,-1.236 z m 3.366,0.006 c -0.984,0 -1.662,0.66 -1.662,1.656 0,0.978 0.654,1.638 1.686,1.638 0.582,0 1.056,-0.21 1.38,-0.57 l -0.486,-0.492 c -0.222,0.222 -0.51,0.342 -0.816,0.342 -0.414,0 -0.726,-0.24 -0.834,-0.648 h 2.316 c 0.078,-1.176 -0.45,-1.926 -1.584,-1.926 z m -0.75,1.38 c 0.072,-0.426 0.348,-0.702 0.756,-0.702 0.426,0 0.702,0.276 0.714,0.702 z m 3.868,-1.35 H 34.28 V 26 h 0.924 v -1.554 c 0,-0.546 0.408,-0.9 1.068,-0.84 v -0.87 c -0.48,0.006 -0.846,0.222 -1.068,0.618 z" id="path8" inkscape:connector-curvature="0" style="fill:#7c4198"></path><rect x="53.5" y="6.5" width="40" height="23" rx="1.5" id="rect10" style="stroke:#7d4199"></rect><path d="m 61.565,15.8 c -1.5,0 -2.682,1.134 -2.682,2.598 0,1.434 1.122,2.502 2.604,2.502 0.462,0 1.056,-0.168 1.41,-0.432 l -0.27,-0.462 c -0.336,0.246 -0.792,0.36 -1.14,0.36 -1.152,0 -2.04,-0.834 -2.04,-1.968 0,-1.152 0.942,-2.076 2.118,-2.076 1.272,0 2.046,0.9 2.046,2.052 0,0.588 -0.252,0.996 -0.516,0.996 -0.144,0 -0.246,-0.078 -0.246,-0.3 v -2.04 h -0.702 v 0.336 c -0.042,-0.078 -0.366,-0.402 -0.858,-0.402 -0.768,0 -1.26,0.642 -1.26,1.416 0,0.834 0.642,1.392 1.332,1.392 0.366,0 0.714,-0.15 0.948,-0.492 l 0.012,0.09 c 0.078,0.324 0.336,0.468 0.702,0.468 0.672,0 1.146,-0.582 1.146,-1.482 0,-1.476 -1.11,-2.556 -2.604,-2.556 z m -0.138,1.818 c 0.414,0 0.672,0.33 0.672,0.738 0,0.426 -0.246,0.774 -0.66,0.774 -0.39,0 -0.642,-0.36 -0.642,-0.78 0,-0.402 0.252,-0.732 0.63,-0.732 z m 5.157,1.524 c -0.168,0.078 -0.312,0.12 -0.432,0.12 C 65.954,19.268 65.84,19.16 65.84,18.89 v -1.332 h 0.876 V 16.916 H 65.84 v -0.888 h -0.918 v 0.888 h -0.45 v 0.636 h 0.45 v 1.494 c 0,0.666 0.438,0.996 1.014,0.996 0.3,0 0.6,-0.084 0.84,-0.222 z m 2.183,-2.4 c -1.038,0 -1.734,0.654 -1.734,1.644 0,0.984 0.696,1.65 1.734,1.65 1.032,0 1.728,-0.666 1.728,-1.65 0,-0.99 -0.696,-1.644 -1.728,-1.644 z m 0,0.768 c 0.474,0 0.804,0.36 0.804,0.888 0,0.528 -0.33,0.888 -0.804,0.888 -0.48,0 -0.804,-0.36 -0.804,-0.888 0,-0.528 0.324,-0.888 0.804,-0.888 z m 4.313,-0.768 c -0.438,0 -0.792,0.18 -1.02,0.504 v -0.474 h -0.924 v 4.392 h 0.924 v -1.632 c 0.234,0.324 0.588,0.504 1.038,0.504 0.906,0 1.5,-0.654 1.5,-1.632 0,-0.996 -0.612,-1.662 -1.518,-1.662 z m -0.216,2.526 c -0.474,0 -0.804,-0.36 -0.804,-0.894 0,-0.522 0.33,-0.888 0.804,-0.888 0.474,0 0.798,0.372 0.798,0.888 0,0.528 -0.324,0.894 -0.798,0.894 z m 3.79,-0.798 V 17.858 H 75.106 V 18.47 Z M 78.394,20 V 15.548 H 77.47 V 20 Z m 2.313,-3.258 c -0.984,0 -1.662,0.66 -1.662,1.656 0,0.978 0.654,1.638 1.686,1.638 0.582,0 1.056,-0.21 1.38,-0.57 l -0.486,-0.492 c -0.222,0.222 -0.51,0.342 -0.816,0.342 -0.414,0 -0.726,-0.24 -0.834,-0.648 h 2.316 c 0.078,-1.176 -0.45,-1.926 -1.584,-1.926 z m -0.75,1.38 c 0.072,-0.426 0.348,-0.702 0.756,-0.702 0.426,0 0.702,0.276 0.714,0.702 z m 4.379,-1.854 c 0.132,0 0.282,0.048 0.402,0.138 l 0.33,-0.672 c -0.228,-0.15 -0.546,-0.228 -0.846,-0.228 -0.648,0 -1.188,0.384 -1.188,1.104 v 0.306 h -0.432 v 0.642 h 0.432 V 20 h 0.918 v -2.442 h 0.762 v -0.642 h -0.762 v -0.27 c 0,-0.258 0.168,-0.378 0.384,-0.378 z m 2.639,2.874 c -0.168,0.078 -0.312,0.12 -0.432,0.12 -0.198,0.006 -0.312,-0.102 -0.312,-0.372 v -1.332 h 0.876 v -0.642 h -0.876 v -0.888 h -0.918 v 0.888 h -0.45 v 0.636 h 0.45 v 1.494 c 0,0.666 0.438,0.996 1.014,0.996 0.3,0 0.6,-0.084 0.84,-0.222 z" id="path12" inkscape:connector-curvature="0" style="fill:#7c4198"></path><rect x="101.5" y="6.5" width="55" height="23" rx="1.5" id="rect14" style="stroke:#7d4199"></rect><path d="m 113.465,15.8 c -1.5,0 -2.682,1.134 -2.682,2.598 0,1.434 1.122,2.502 2.604,2.502 0.462,0 1.056,-0.168 1.41,-0.432 l -0.27,-0.462 c -0.336,0.246 -0.792,0.36 -1.14,0.36 -1.152,0 -2.04,-0.834 -2.04,-1.968 0,-1.152 0.942,-2.076 2.118,-2.076 1.272,0 2.046,0.9 2.046,2.052 0,0.588 -0.252,0.996 -0.516,0.996 -0.144,0 -0.246,-0.078 -0.246,-0.3 v -2.04 h -0.702 v 0.336 c -0.042,-0.078 -0.366,-0.402 -0.858,-0.402 -0.768,0 -1.26,0.642 -1.26,1.416 0,0.834 0.642,1.392 1.332,1.392 0.366,0 0.714,-0.15 0.948,-0.492 l 0.012,0.09 c 0.078,0.324 0.336,0.468 0.702,0.468 0.672,0 1.146,-0.582 1.146,-1.482 0,-1.476 -1.11,-2.556 -2.604,-2.556 z m -0.138,1.818 c 0.414,0 0.672,0.33 0.672,0.738 0,0.426 -0.246,0.774 -0.66,0.774 -0.39,0 -0.642,-0.36 -0.642,-0.78 0,-0.402 0.252,-0.732 0.63,-0.732 z m 5.157,1.524 c -0.168,0.078 -0.312,0.12 -0.432,0.12 -0.198,0.006 -0.312,-0.102 -0.312,-0.372 v -1.332 h 0.876 v -0.642 h -0.876 v -0.888 h -0.918 v 0.888 h -0.45 v 0.636 h 0.45 v 1.494 c 0,0.666 0.438,0.996 1.014,0.996 0.3,0 0.6,-0.084 0.84,-0.222 z m 2.184,-2.4 c -1.038,0 -1.734,0.654 -1.734,1.644 0,0.984 0.696,1.65 1.734,1.65 1.032,0 1.728,-0.666 1.728,-1.65 0,-0.99 -0.696,-1.644 -1.728,-1.644 z m 0,0.768 c 0.474,0 0.804,0.36 0.804,0.888 0,0.528 -0.33,0.888 -0.804,0.888 -0.48,0 -0.804,-0.36 -0.804,-0.888 0,-0.528 0.324,-0.888 0.804,-0.888 z m 4.313,-0.768 c -0.438,0 -0.792,0.18 -1.02,0.504 v -0.474 h -0.924 v 4.392 h 0.924 v -1.632 c 0.234,0.324 0.588,0.504 1.038,0.504 0.906,0 1.5,-0.654 1.5,-1.632 0,-0.996 -0.612,-1.662 -1.518,-1.662 z m -0.216,2.526 c -0.474,0 -0.804,-0.36 -0.804,-0.894 0,-0.522 0.33,-0.888 0.804,-0.888 0.474,0 0.797,0.372 0.797,0.888 0,0.528 -0.323,0.894 -0.797,0.894 z m 3.789,-0.798 v -0.612 h -1.548 v 0.612 z m 2.166,-1.728 c -0.99,0 -1.656,0.666 -1.656,1.656 0,0.978 0.666,1.638 1.644,1.638 0.66,0 1.164,-0.264 1.434,-0.714 l -0.636,-0.432 c -0.162,0.252 -0.42,0.378 -0.75,0.378 -0.45,0 -0.768,-0.354 -0.768,-0.876 0,-0.516 0.318,-0.864 0.768,-0.864 0.318,-0.006 0.564,0.126 0.738,0.342 l 0.624,-0.45 c -0.288,-0.432 -0.78,-0.678 -1.398,-0.678 z m 3.282,0 c -0.984,0 -1.662,0.66 -1.662,1.656 0,0.978 0.654,1.638 1.686,1.638 0.582,0 1.056,-0.21 1.38,-0.57 l -0.486,-0.492 c -0.222,0.222 -0.51,0.342 -0.816,0.342 -0.414,0 -0.726,-0.24 -0.834,-0.648 h 2.316 c 0.078,-1.176 -0.45,-1.926 -1.584,-1.926 z m -0.75,1.38 c 0.072,-0.426 0.348,-0.702 0.756,-0.702 0.426,0 0.702,0.276 0.714,0.702 z m 4.984,-1.386 c -0.504,0.006 -0.888,0.198 -1.116,0.6 v -0.564 h -0.924 V 20 h 0.924 v -1.59 c 0,-0.474 0.276,-0.822 0.738,-0.828 0.396,0 0.636,0.252 0.636,0.66 V 20 h 0.924 v -2.028 c 0,-0.756 -0.462,-1.236 -1.182,-1.236 z m 3.785,2.406 c -0.168,0.078 -0.312,0.12 -0.432,0.12 -0.198,0.006 -0.312,-0.102 -0.312,-0.372 v -1.332 h 0.876 v -0.642 h -0.876 v -0.888 h -0.918 v 0.888 h -0.45 v 0.636 h 0.45 v 1.494 c 0,0.666 0.438,0.996 1.014,0.996 0.3,0 0.6,-0.084 0.84,-0.222 z m 2.112,-2.4 c -0.984,0 -1.662,0.66 -1.662,1.656 0,0.978 0.654,1.638 1.686,1.638 0.582,0 1.056,-0.21 1.38,-0.57 l -0.486,-0.492 c -0.222,0.222 -0.51,0.342 -0.816,0.342 -0.414,0 -0.726,-0.24 -0.834,-0.648 h 2.316 c 0.078,-1.176 -0.45,-1.926 -1.584,-1.926 z m -0.75,1.38 c 0.072,-0.426 0.348,-0.702 0.756,-0.702 0.426,0 0.702,0.276 0.714,0.702 z m 3.868,-1.35 h -0.924 V 20 h 0.924 v -1.554 c 0,-0.546 0.408,-0.9 1.068,-0.84 v -0.87 c -0.48,0.006 -0.846,0.222 -1.068,0.618 z" id="path16" inkscape:connector-curvature="0" style="fill:#7c4198"></path><rect x="164.5" y="6.5" width="40" height="23" rx="1.5" id="rect18" style="stroke:#7d4199"></rect><path d="m 170.818,15.8 c -1.5,0 -2.682,1.134 -2.682,2.598 0,1.434 1.122,2.502 2.604,2.502 0.462,0 1.056,-0.168 1.41,-0.432 l -0.27,-0.462 c -0.336,0.246 -0.792,0.36 -1.14,0.36 -1.152,0 -2.04,-0.834 -2.04,-1.968 0,-1.152 0.942,-2.076 2.118,-2.076 1.272,0 2.046,0.9 2.046,2.052 0,0.588 -0.252,0.996 -0.516,0.996 -0.144,0 -0.246,-0.078 -0.246,-0.3 V 17.03 H 171.4 v 0.336 c -0.042,-0.078 -0.366,-0.402 -0.858,-0.402 -0.768,0 -1.26,0.642 -1.26,1.416 0,0.834 0.642,1.392 1.332,1.392 0.366,0 0.714,-0.15 0.948,-0.492 l 0.012,0.09 c 0.078,0.324 0.336,0.468 0.702,0.468 0.672,0 1.146,-0.582 1.146,-1.482 0,-1.476 -1.11,-2.556 -2.604,-2.556 z m -0.138,1.818 c 0.414,0 0.672,0.33 0.672,0.738 0,0.426 -0.246,0.774 -0.66,0.774 -0.39,0 -0.642,-0.36 -0.642,-0.78 0,-0.402 0.252,-0.732 0.63,-0.732 z m 5.157,1.524 c -0.168,0.078 -0.312,0.12 -0.432,0.12 -0.198,0.006 -0.312,-0.102 -0.312,-0.372 v -1.332 h 0.876 v -0.642 h -0.876 v -0.888 h -0.918 v 0.888 h -0.45 v 0.636 h 0.45 v 1.494 c 0,0.666 0.438,0.996 1.014,0.996 0.3,0 0.6,-0.084 0.84,-0.222 z m 2.183,-2.4 c -1.038,0 -1.734,0.654 -1.734,1.644 0,0.984 0.696,1.65 1.734,1.65 1.032,0 1.728,-0.666 1.728,-1.65 0,-0.99 -0.696,-1.644 -1.728,-1.644 z m 0,0.768 c 0.474,0 0.804,0.36 0.804,0.888 0,0.528 -0.33,0.888 -0.804,0.888 -0.48,0 -0.804,-0.36 -0.804,-0.888 0,-0.528 0.324,-0.888 0.804,-0.888 z m 4.313,-0.768 c -0.438,0 -0.792,0.18 -1.02,0.504 v -0.474 h -0.924 v 4.392 h 0.924 v -1.632 c 0.234,0.324 0.588,0.504 1.038,0.504 0.906,0 1.5,-0.654 1.5,-1.632 0,-0.996 -0.612,-1.662 -1.518,-1.662 z m -0.216,2.526 c -0.474,0 -0.804,-0.36 -0.804,-0.894 0,-0.522 0.33,-0.888 0.804,-0.888 0.474,0 0.798,0.372 0.798,0.888 0,0.528 -0.324,0.894 -0.798,0.894 z m 3.79,-0.798 v -0.612 h -1.548 v 0.612 z m 1.71,-1.698 h -0.924 V 20 h 0.924 v -1.554 c 0,-0.546 0.408,-0.9 1.068,-0.84 v -0.87 c -0.48,0.006 -0.846,0.222 -1.068,0.618 z m 2.034,-1.434 c -0.294,0 -0.498,0.216 -0.498,0.516 0,0.3 0.204,0.516 0.498,0.516 0.294,0 0.498,-0.216 0.498,-0.516 0,-0.3 -0.204,-0.516 -0.498,-0.516 z M 190.113,20 v -3.228 h -0.924 V 20 Z m 3.911,-3.228 h -0.918 v 0.438 c -0.222,-0.3 -0.558,-0.474 -0.996,-0.468 -0.822,0 -1.386,0.618 -1.386,1.53 0,0.936 0.576,1.56 1.41,1.56 0.426,0 0.756,-0.168 0.972,-0.468 v 0.366 c 0,0.438 -0.336,0.72 -0.864,0.72 -0.366,0 -0.708,-0.114 -1.002,-0.324 l -0.342,0.648 c 0.372,0.252 0.858,0.426 1.404,0.426 1.032,0 1.722,-0.582 1.722,-1.5 z m -1.674,2.358 c -0.456,0 -0.756,-0.342 -0.762,-0.834 0.006,-0.492 0.312,-0.84 0.762,-0.84 0.45,0 0.756,0.342 0.756,0.84 0,0.492 -0.306,0.834 -0.756,0.834 z m 4.587,-2.394 c -0.504,0.006 -0.888,0.204 -1.116,0.606 v -1.794 h -0.924 V 20 h 0.924 v -1.59 c 0,-0.474 0.282,-0.822 0.744,-0.828 0.396,0 0.636,0.252 0.636,0.66 V 20 h 0.924 v -2.028 c 0,-0.756 -0.462,-1.236 -1.188,-1.236 z m 3.785,2.406 c -0.168,0.078 -0.312,0.12 -0.432,0.12 -0.198,0.006 -0.312,-0.102 -0.312,-0.372 v -1.332 h 0.876 v -0.642 h -0.876 v -0.888 h -0.918 v 0.888 h -0.45 v 0.636 h 0.45 v 1.494 c 0,0.666 0.438,0.996 1.014,0.996 0.3,0 0.6,-0.084 0.84,-0.222 z" id="path20" inkscape:connector-curvature="0" style="fill:#7c4198"></path><rect x="211.5" y="6.5" width="39" height="23" rx="1.5" id="rect22" style="stroke:#7d4199"></rect><path d="m 225.706,9.8 c -1.5,0 -2.682,1.134 -2.682,2.598 0,1.434 1.122,2.502 2.604,2.502 0.462,0 1.056,-0.168 1.41,-0.432 l -0.27,-0.462 c -0.336,0.246 -0.792,0.36 -1.14,0.36 -1.152,0 -2.04,-0.834 -2.04,-1.968 0,-1.152 0.942,-2.076 2.118,-2.076 1.272,0 2.046,0.9 2.046,2.052 0,0.588 -0.252,0.996 -0.516,0.996 -0.144,0 -0.246,-0.078 -0.246,-0.3 v -2.04 h -0.702 v 0.336 c -0.042,-0.078 -0.366,-0.402 -0.858,-0.402 -0.768,0 -1.26,0.642 -1.26,1.416 0,0.834 0.642,1.392 1.332,1.392 0.366,0 0.714,-0.15 0.948,-0.492 l 0.012,0.09 c 0.078,0.324 0.336,0.468 0.702,0.468 0.672,0 1.146,-0.582 1.146,-1.482 0,-1.476 -1.11,-2.556 -2.604,-2.556 z m -0.138,1.818 c 0.414,0 0.672,0.33 0.672,0.738 0,0.426 -0.246,0.774 -0.66,0.774 -0.39,0 -0.642,-0.36 -0.642,-0.78 0,-0.402 0.252,-0.732 0.63,-0.732 z m 5.158,1.524 c -0.168,0.078 -0.312,0.12 -0.432,0.12 -0.198,0.006 -0.312,-0.102 -0.312,-0.372 v -1.332 h 0.876 v -0.642 h -0.876 v -0.888 h -0.918 v 0.888 h -0.45 v 0.636 h 0.45 v 1.494 c 0,0.666 0.438,0.996 1.014,0.996 0.3,0 0.6,-0.084 0.84,-0.222 z m 2.183,-2.4 c -1.038,0 -1.734,0.654 -1.734,1.644 0,0.984 0.696,1.65 1.734,1.65 1.032,0 1.728,-0.666 1.728,-1.65 0,-0.99 -0.696,-1.644 -1.728,-1.644 z m 0,0.768 c 0.474,0 0.804,0.36 0.804,0.888 0,0.528 -0.33,0.888 -0.804,0.888 -0.48,0 -0.804,-0.36 -0.804,-0.888 0,-0.528 0.324,-0.888 0.804,-0.888 z m 4.313,-0.768 c -0.438,0 -0.792,0.18 -1.02,0.504 v -0.474 h -0.924 v 4.392 h 0.924 v -1.632 c 0.234,0.324 0.588,0.504 1.038,0.504 0.906,0 1.5,-0.654 1.5,-1.632 0,-0.996 -0.612,-1.662 -1.518,-1.662 z m -0.216,2.526 c -0.474,0 -0.804,-0.36 -0.804,-0.894 0,-0.522 0.33,-0.888 0.804,-0.888 0.474,0 0.798,0.372 0.798,0.888 0,0.528 -0.324,0.894 -0.798,0.894 z m 3.789,-0.798 v -0.612 h -1.548 v 0.612 z m -15.932,4.302 h -0.924 V 20 h 0.924 v -1.554 c 0,-0.546 0.408,-0.9 1.068,-0.84 v -0.87 c -0.48,0.006 -0.846,0.222 -1.068,0.618 z m 2.034,-1.434 c -0.294,0 -0.498,0.216 -0.498,0.516 0,0.3 0.204,0.516 0.498,0.516 0.294,0 0.498,-0.216 0.498,-0.516 0,-0.3 -0.204,-0.516 -0.498,-0.516 z M 227.359,20 v -3.228 h -0.924 V 20 Z m 3.911,-3.228 h -0.918 v 0.438 c -0.222,-0.3 -0.558,-0.474 -0.996,-0.468 -0.822,0 -1.386,0.618 -1.386,1.53 0,0.936 0.576,1.56 1.41,1.56 0.426,0 0.756,-0.168 0.972,-0.468 v 0.366 c 0,0.438 -0.336,0.72 -0.864,0.72 -0.366,0 -0.708,-0.114 -1.002,-0.324 l -0.342,0.648 c 0.372,0.252 0.858,0.426 1.404,0.426 1.032,0 1.722,-0.582 1.722,-1.5 z m -1.674,2.358 c -0.456,0 -0.756,-0.342 -0.762,-0.834 0.006,-0.492 0.312,-0.84 0.762,-0.84 0.45,0 0.756,0.342 0.756,0.84 0,0.492 -0.306,0.834 -0.756,0.834 z m 4.587,-2.394 c -0.504,0.006 -0.888,0.204 -1.116,0.606 v -1.794 h -0.924 V 20 h 0.924 v -1.59 c 0,-0.474 0.282,-0.822 0.744,-0.828 0.396,0 0.636,0.252 0.636,0.66 V 20 h 0.924 v -2.028 c 0,-0.756 -0.462,-1.236 -1.188,-1.236 z m 3.785,2.406 c -0.168,0.078 -0.312,0.12 -0.432,0.12 -0.198,0.006 -0.312,-0.102 -0.312,-0.372 v -1.332 h 0.876 v -0.642 h -0.876 v -0.888 h -0.918 v 0.888 h -0.45 v 0.636 h 0.45 v 1.494 c 0,0.666 0.438,0.996 1.014,0.996 0.3,0 0.6,-0.084 0.84,-0.222 z m 2.194,-0.672 v -0.612 h -1.548 v 0.612 z m -16.17,4.272 c -0.99,0 -1.656,0.666 -1.656,1.656 0,0.978 0.666,1.638 1.644,1.638 0.66,0 1.164,-0.264 1.434,-0.714 l -0.636,-0.432 c -0.162,0.252 -0.42,0.378 -0.75,0.378 -0.45,0 -0.768,-0.354 -0.768,-0.876 0,-0.516 0.318,-0.864 0.768,-0.864 0.318,-0.006 0.564,0.126 0.738,0.342 l 0.624,-0.45 c -0.288,-0.432 -0.78,-0.678 -1.398,-0.678 z m 3.353,0 c -1.038,0 -1.734,0.654 -1.734,1.644 0,0.984 0.696,1.65 1.734,1.65 1.032,0 1.728,-0.666 1.728,-1.65 0,-0.99 -0.696,-1.644 -1.728,-1.644 z m 0,0.768 c 0.474,0 0.804,0.36 0.804,0.888 0,0.528 -0.33,0.888 -0.804,0.888 -0.48,0 -0.804,-0.36 -0.804,-0.888 0,-0.528 0.324,-0.888 0.804,-0.888 z m 3.263,-0.738 h -0.924 V 26 h 0.924 v -1.554 c 0,-0.546 0.408,-0.9 1.068,-0.84 v -0.87 c -0.48,0.006 -0.846,0.222 -1.068,0.618 z m 3.612,-0.036 c -0.504,0.006 -0.888,0.198 -1.116,0.6 V 22.772 H 232.18 V 26 h 0.924 v -1.59 c 0,-0.474 0.276,-0.822 0.738,-0.828 0.396,0 0.636,0.252 0.636,0.66 V 26 h 0.924 v -2.028 c 0,-0.756 -0.462,-1.236 -1.182,-1.236 z m 3.366,0.006 c -0.984,0 -1.662,0.66 -1.662,1.656 0,0.978 0.654,1.638 1.686,1.638 0.582,0 1.056,-0.21 1.38,-0.57 l -0.486,-0.492 c -0.222,0.222 -0.51,0.342 -0.816,0.342 -0.414,0 -0.726,-0.24 -0.834,-0.648 h 2.316 c 0.078,-1.176 -0.45,-1.926 -1.584,-1.926 z m -0.75,1.38 c 0.072,-0.426 0.348,-0.702 0.756,-0.702 0.426,0 0.702,0.276 0.714,0.702 z m 3.868,-1.35 H 239.78 V 26 h 0.924 v -1.554 c 0,-0.546 0.408,-0.9 1.068,-0.84 v -0.87 c -0.48,0.006 -0.846,0.222 -1.068,0.618 z" id="path24" inkscape:connector-curvature="0" style="fill:#7c4198"></path><rect x="211.5" y="271.5" width="39" height="23" rx="1.5" id="rect26" style="stroke:#6a88bd"></rect><path d="m 218.203,274.74 c -1.746,0 -2.904,1.17 -2.904,2.736 0,1.584 1.146,2.76 2.88,2.76 0.474,0 1.008,-0.102 1.374,-0.288 l -0.192,-0.552 c -0.378,0.186 -0.804,0.264 -1.182,0.264 -1.332,0 -2.208,-0.906 -2.208,-2.184 0,-1.254 0.894,-2.166 2.232,-2.166 1.332,0 2.232,0.84 2.232,2.058 0,0.696 -0.168,1.014 -0.444,1.014 -0.162,0 -0.288,-0.096 -0.288,-0.384 v -1.944 h -0.816 v 0.354 c -0.216,-0.258 -0.528,-0.396 -0.924,-0.396 -0.78,0 -1.386,0.612 -1.386,1.512 0,0.906 0.612,1.518 1.386,1.518 0.474,0 0.816,-0.186 1.026,-0.522 0.126,0.342 0.414,0.522 0.822,0.522 0.738,0 1.23,-0.612 1.23,-1.686 0,-1.506 -1.152,-2.616 -2.838,-2.616 z m -0.054,3.612 c -0.438,0 -0.744,-0.312 -0.744,-0.828 0,-0.51 0.306,-0.816 0.744,-0.816 0.432,0 0.75,0.294 0.75,0.816 0,0.528 -0.318,0.828 -0.75,0.828 z m 5.467,-2.628 c -0.402,0 -0.732,0.126 -0.972,0.39 v -1.566 h -0.936 V 279 h 0.894 v -0.372 c 0.234,0.282 0.582,0.42 1.014,0.42 0.906,0 1.608,-0.648 1.608,-1.662 0,-1.014 -0.702,-1.662 -1.608,-1.662 z m -0.162,2.556 c -0.468,0 -0.822,-0.336 -0.822,-0.894 0,-0.558 0.354,-0.894 0.822,-0.894 0.468,0 0.822,0.336 0.822,0.894 0,0.558 -0.354,0.894 -0.822,0.894 z m 3.933,0.768 c 1.026,0 1.77,-0.69 1.77,-1.662 0,-0.972 -0.744,-1.662 -1.77,-1.662 -1.026,0 -1.776,0.69 -1.776,1.662 0,0.972 0.75,1.662 1.776,1.662 z m 0,-0.768 c -0.468,0 -0.828,-0.336 -0.828,-0.894 0,-0.558 0.36,-0.894 0.828,-0.894 0.468,0 0.822,0.336 0.822,0.894 0,0.558 -0.354,0.894 -0.822,0.894 z m 4.226,-0.096 c -0.102,0.078 -0.24,0.12 -0.378,0.12 -0.252,0 -0.402,-0.15 -0.402,-0.426 v -1.314 h 0.804 v -0.72 h -0.804 v -0.786 h -0.936 v 0.786 h -0.498 v 0.72 h 0.498 v 1.326 c 0,0.768 0.444,1.158 1.206,1.158 0.288,0 0.57,-0.066 0.762,-0.204 z m 2.537,0 c -0.102,0.078 -0.24,0.12 -0.378,0.12 -0.252,0 -0.402,-0.15 -0.402,-0.426 v -1.314 h 0.804 v -0.72 h -0.804 v -0.786 h -0.936 v 0.786 h -0.498 v 0.72 h 0.498 v 1.326 c 0,0.768 0.444,1.158 1.206,1.158 0.288,0 0.57,-0.066 0.762,-0.204 z m 2.214,0.864 c 1.026,0 1.77,-0.69 1.77,-1.662 0,-0.972 -0.744,-1.662 -1.77,-1.662 -1.026,0 -1.776,0.69 -1.776,1.662 0,0.972 0.75,1.662 1.776,1.662 z m 0,-0.768 c -0.468,0 -0.828,-0.336 -0.828,-0.894 0,-0.558 0.36,-0.894 0.828,-0.894 0.468,0 0.822,0.336 0.822,0.894 0,0.558 -0.354,0.894 -0.822,0.894 z m 6.529,-2.556 c -0.486,0 -0.906,0.198 -1.164,0.528 -0.228,-0.354 -0.612,-0.528 -1.062,-0.528 -0.414,0 -0.774,0.144 -1.014,0.42 v -0.372 h -0.894 V 279 h 0.936 v -1.62 c 0,-0.576 0.294,-0.846 0.708,-0.846 0.39,0 0.612,0.24 0.612,0.762 V 279 h 0.936 v -1.62 c 0,-0.576 0.294,-0.846 0.714,-0.846 0.378,0 0.612,0.24 0.612,0.762 V 279 h 0.936 v -1.848 c 0,-0.984 -0.552,-1.428 -1.32,-1.428 z m 2.039,1.962 h 1.698 v -0.75 h -1.698 z m -21.395,4.512 v -0.426 h -0.894 V 285 h 0.936 v -1.524 c 0,-0.618 0.342,-0.9 0.858,-0.9 0.072,0 0.132,0.006 0.21,0.012 v -0.864 c -0.498,0 -0.882,0.162 -1.11,0.474 z m 2.134,-0.876 c 0.348,0 0.582,-0.228 0.582,-0.54 0,-0.288 -0.234,-0.504 -0.582,-0.504 -0.348,0 -0.582,0.228 -0.582,0.522 0,0.294 0.234,0.522 0.582,0.522 z M 225.203,285 h 0.936 v -3.228 h -0.936 z m 4.247,-3.228 v 0.414 c -0.246,-0.312 -0.618,-0.462 -1.068,-0.462 -0.894,0 -1.614,0.618 -1.614,1.56 0,0.942 0.72,1.56 1.614,1.56 0.42,0 0.774,-0.132 1.02,-0.402 v 0.138 c 0,0.582 -0.288,0.882 -0.948,0.882 -0.414,0 -0.864,-0.144 -1.14,-0.366 l -0.372,0.672 c 0.378,0.294 0.972,0.444 1.584,0.444 1.164,0 1.812,-0.552 1.812,-1.752 v -2.688 z m -0.882,2.304 c -0.492,0 -0.852,-0.318 -0.852,-0.792 0,-0.474 0.36,-0.792 0.852,-0.792 0.492,0 0.846,0.318 0.846,0.792 0,0.474 -0.354,0.792 -0.846,0.792 z m 4.603,-2.352 c -0.414,0 -0.774,0.132 -1.026,0.384 v -1.56 h -0.936 V 285 h 0.936 v -1.596 c 0,-0.594 0.324,-0.87 0.774,-0.87 0.414,0 0.654,0.24 0.654,0.762 V 285 h 0.936 v -1.848 c 0,-0.984 -0.576,-1.428 -1.338,-1.428 z m 4.017,2.46 c -0.102,0.078 -0.24,0.12 -0.378,0.12 -0.252,0 -0.402,-0.15 -0.402,-0.426 v -1.314 h 0.804 v -0.72 h -0.804 v -0.786 h -0.936 v 0.786 h -0.498 v 0.72 h 0.498 v 1.326 c 0,0.768 0.444,1.158 1.206,1.158 0.288,0 0.57,-0.066 0.762,-0.204 z m 0.599,-0.498 h 1.698 v -0.75 h -1.698 z m -15.069,7.362 c 0.678,0 1.212,-0.3 1.446,-0.816 l -0.726,-0.396 c -0.174,0.312 -0.432,0.444 -0.726,0.444 -0.474,0 -0.846,-0.33 -0.846,-0.894 0,-0.564 0.372,-0.894 0.846,-0.894 0.294,0 0.552,0.138 0.726,0.444 l 0.726,-0.39 c -0.234,-0.528 -0.768,-0.822 -1.446,-0.822 -1.05,0 -1.8,0.69 -1.8,1.662 0,0.972 0.75,1.662 1.8,1.662 z m 3.479,0 c 1.026,0 1.77,-0.69 1.77,-1.662 0,-0.972 -0.744,-1.662 -1.77,-1.662 -1.026,0 -1.776,0.69 -1.776,1.662 0,0.972 0.75,1.662 1.776,1.662 z m 0,-0.768 c -0.468,0 -0.828,-0.336 -0.828,-0.894 0,-0.558 0.36,-0.894 0.828,-0.894 0.468,0 0.822,0.336 0.822,0.894 0,0.558 -0.354,0.894 -0.822,0.894 z m 3.29,-2.082 v -0.426 h -0.894 V 291 h 0.936 v -1.524 c 0,-0.618 0.342,-0.9 0.858,-0.9 0.072,0 0.132,0.006 0.21,0.012 v -0.864 c -0.498,0 -0.882,0.162 -1.11,0.474 z m 3.629,-0.474 c -0.438,0 -0.816,0.15 -1.068,0.426 v -0.378 h -0.894 V 291 h 0.936 v -1.596 c 0,-0.594 0.324,-0.87 0.774,-0.87 0.414,0 0.654,0.24 0.654,0.762 V 291 h 0.936 v -1.848 c 0,-0.984 -0.576,-1.428 -1.338,-1.428 z m 5.383,1.674 c 0,-1.038 -0.732,-1.674 -1.68,-1.674 -0.984,0 -1.722,0.696 -1.722,1.662 0,0.96 0.726,1.662 1.842,1.662 0.582,0 1.032,-0.18 1.332,-0.522 l -0.498,-0.54 c -0.222,0.21 -0.468,0.312 -0.81,0.312 -0.492,0 -0.834,-0.246 -0.924,-0.648 h 2.442 c 0.006,-0.078 0.018,-0.18 0.018,-0.252 z m -1.674,-0.966 c 0.42,0 0.726,0.264 0.792,0.672 h -1.59 c 0.066,-0.414 0.372,-0.672 0.798,-0.672 z m 3.191,-0.234 v -0.426 h -0.894 V 291 h 0.936 v -1.524 c 0,-0.618 0.342,-0.9 0.858,-0.9 0.072,0 0.132,0.006 0.21,0.012 v -0.864 c -0.498,0 -0.882,0.162 -1.11,0.474 z" id="path28" inkscape:connector-curvature="0" style="fill:#6a88bd"></path><rect x="7.5" y="271.5" width="39" height="23" rx="1.5" id="rect30" style="stroke:#6a88bd"></rect><path d="m 14.2034,274.74 c -1.746,0 -2.904,1.17 -2.904,2.736 0,1.584 1.146,2.76 2.88,2.76 0.474,0 1.008,-0.102 1.374,-0.288 l -0.192,-0.552 c -0.378,0.186 -0.804,0.264 -1.182,0.264 -1.332,0 -2.208,-0.906 -2.208,-2.184 0,-1.254 0.894,-2.166 2.232,-2.166 1.332,0 2.232,0.84 2.232,2.058 0,0.696 -0.168,1.014 -0.444,1.014 -0.162,0 -0.288,-0.096 -0.288,-0.384 v -1.944 h -0.816 v 0.354 c -0.216,-0.258 -0.528,-0.396 -0.924,-0.396 -0.78,0 -1.386,0.612 -1.386,1.512 0,0.906 0.612,1.518 1.386,1.518 0.474,0 0.816,-0.186 1.026,-0.522 0.126,0.342 0.414,0.522 0.822,0.522 0.738,0 1.23,-0.612 1.23,-1.686 0,-1.506 -1.152,-2.616 -2.838,-2.616 z m -0.054,3.612 c -0.438,0 -0.744,-0.312 -0.744,-0.828 0,-0.51 0.306,-0.816 0.744,-0.816 0.432,0 0.75,0.294 0.75,0.816 0,0.528 -0.318,0.828 -0.75,0.828 z m 5.467,-2.628 c -0.402,0 -0.732,0.126 -0.972,0.39 v -1.566 h -0.936 V 279 h 0.894 v -0.372 c 0.234,0.282 0.582,0.42 1.014,0.42 0.906,0 1.6076,-0.648 1.6076,-1.662 0,-1.014 -0.7016,-1.662 -1.6076,-1.662 z m -0.162,2.556 c -0.468,0 -0.822,-0.336 -0.822,-0.894 0,-0.558 0.354,-0.894 0.822,-0.894 0.468,0 0.822,0.336 0.822,0.894 0,0.558 -0.354,0.894 -0.822,0.894 z m 3.9326,0.768 c 1.026,0 1.77,-0.69 1.77,-1.662 0,-0.972 -0.744,-1.662 -1.77,-1.662 -1.026,0 -1.776,0.69 -1.776,1.662 0,0.972 0.75,1.662 1.776,1.662 z m 0,-0.768 c -0.468,0 -0.828,-0.336 -0.828,-0.894 0,-0.558 0.36,-0.894 0.828,-0.894 0.468,0 0.822,0.336 0.822,0.894 0,0.558 -0.354,0.894 -0.822,0.894 z m 4.226,-0.096 c -0.102,0.078 -0.24,0.12 -0.378,0.12 -0.252,0 -0.402,-0.15 -0.402,-0.426 v -1.314 h 0.804 v -0.72 h -0.804 v -0.786 h -0.936 v 0.786 h -0.498 v 0.72 h 0.498 v 1.326 c 0,0.768 0.444,1.158 1.206,1.158 0.288,0 0.57,-0.066 0.762,-0.204 z m 2.537,0 c -0.102,0.078 -0.24,0.12 -0.378,0.12 -0.252,0 -0.402,-0.15 -0.402,-0.426 v -1.314 h 0.804 v -0.72 H 29.37 v -0.786 h -0.936 v 0.786 h -0.498 v 0.72 h 0.498 v 1.326 c 0,0.768 0.444,1.158 1.206,1.158 0.288,0 0.57,-0.066 0.762,-0.204 z m 2.214,0.864 c 1.026,0 1.77,-0.69 1.77,-1.662 0,-0.972 -0.744,-1.662 -1.77,-1.662 -1.026,0 -1.776,0.69 -1.776,1.662 0,0.972 0.75,1.662 1.776,1.662 z m 0,-0.768 c -0.468,0 -0.828,-0.336 -0.828,-0.894 0,-0.558 0.36,-0.894 0.828,-0.894 0.468,0 0.822,0.336 0.822,0.894 0,0.558 -0.354,0.894 -0.822,0.894 z m 6.529,-2.556 c -0.486,0 -0.906,0.198 -1.164,0.528 -0.228,-0.354 -0.612,-0.528 -1.062,-0.528 -0.414,0 -0.774,0.144 -1.014,0.42 v -0.372 H 34.759 V 279 h 0.936 v -1.62 c 0,-0.576 0.294,-0.846 0.708,-0.846 0.39,0 0.612,0.24 0.612,0.762 V 279 h 0.936 v -1.62 c 0,-0.576 0.294,-0.846 0.714,-0.846 0.378,0 0.612,0.24 0.612,0.762 V 279 h 0.936 v -1.848 c 0,-0.984 -0.552,-1.428 -1.32,-1.428 z m 2.039,1.962 h 1.698 v -0.75 H 40.932 Z M 21.045,285 h 0.936 v -4.452 h -0.936 z m 4.967,-1.602 c 0,-1.038 -0.732,-1.674 -1.68,-1.674 -0.984,0 -1.722,0.696 -1.722,1.662 0,0.96 0.726,1.662 1.842,1.662 0.582,0 1.032,-0.18 1.332,-0.522 l -0.498,-0.54 c -0.222,0.21 -0.468,0.312 -0.81,0.312 -0.492,0 -0.834,-0.246 -0.924,-0.648 h 2.442 c 0.006,-0.078 0.018,-0.18 0.018,-0.252 z m -1.674,-0.966 c 0.42,0 0.726,0.264 0.792,0.672 h -1.59 c 0.066,-0.414 0.372,-0.672 0.798,-0.672 z m 3.323,-0.726 c 0,-0.318 0.15,-0.468 0.426,-0.468 0.144,0 0.276,0.042 0.378,0.114 l 0.246,-0.678 c -0.174,-0.12 -0.45,-0.174 -0.714,-0.174 -0.804,0 -1.248,0.474 -1.248,1.2 v 0.144 h -0.498 v 0.72 h 0.498 V 285 h 0.936 v -2.436 h 0.804 v -0.72 h -0.828 z m 3.124,2.478 c -0.102,0.078 -0.24,0.12 -0.378,0.12 -0.252,0 -0.402,-0.15 -0.402,-0.426 v -1.314 h 0.804 v -0.72 h -0.804 v -0.786 h -0.936 v 0.786 h -0.498 v 0.72 h 0.498 v 1.326 c 0,0.768 0.444,1.158 1.206,1.158 0.288,0 0.57,-0.066 0.762,-0.204 z m 0.599,-0.498 h 1.698 v -0.75 h -1.698 z m -12.6664,7.362 c 0.678,0 1.212,-0.3 1.446,-0.816 l -0.726,-0.396 c -0.174,0.312 -0.432,0.444 -0.726,0.444 -0.474,0 -0.846,-0.33 -0.846,-0.894 0,-0.564 0.372,-0.894 0.846,-0.894 0.294,0 0.552,0.138 0.726,0.444 l 0.726,-0.39 c -0.234,-0.528 -0.768,-0.822 -1.446,-0.822 -1.05,0 -1.8,0.69 -1.8,1.662 0,0.972 0.75,1.662 1.8,1.662 z m 3.4794,0 c 1.026,0 1.77,-0.69 1.77,-1.662 0,-0.972 -0.744,-1.662 -1.77,-1.662 -1.026,0 -1.7755,0.69 -1.7755,1.662 0,0.972 0.7495,1.662 1.7755,1.662 z m 0,-0.768 c -0.468,0 -0.828,-0.336 -0.828,-0.894 0,-0.558 0.36,-0.894 0.828,-0.894 0.468,0 0.822,0.336 0.822,0.894 0,0.558 -0.354,0.894 -0.822,0.894 z m 3.29,-2.082 v -0.426 H 24.593 V 291 h 0.936 v -1.524 c 0,-0.618 0.342,-0.9 0.858,-0.9 0.072,0 0.132,0.006 0.21,0.012 v -0.864 c -0.498,0 -0.882,0.162 -1.11,0.474 z m 3.629,-0.474 c -0.438,0 -0.816,0.15 -1.068,0.426 v -0.378 H 27.154 V 291 h 0.936 v -1.596 c 0,-0.594 0.324,-0.87 0.774,-0.87 0.414,0 0.654,0.24 0.654,0.762 V 291 h 0.936 v -1.848 c 0,-0.984 -0.576,-1.428 -1.338,-1.428 z m 5.383,1.674 c 0,-1.038 -0.732,-1.674 -1.68,-1.674 -0.984,0 -1.722,0.696 -1.722,1.662 0,0.96 0.726,1.662 1.842,1.662 0.582,0 1.032,-0.18 1.332,-0.522 l -0.498,-0.54 c -0.222,0.21 -0.468,0.312 -0.81,0.312 -0.492,0 -0.834,-0.246 -0.924,-0.648 h 2.442 c 0.006,-0.078 0.018,-0.18 0.018,-0.252 z m -1.674,-0.966 c 0.42,0 0.726,0.264 0.792,0.672 h -1.59 c 0.066,-0.414 0.372,-0.672 0.798,-0.672 z m 3.191,-0.234 v -0.426 H 35.122 V 291 h 0.936 v -1.524 c 0,-0.618 0.342,-0.9 0.858,-0.9 0.072,0 0.132,0.006 0.21,0.012 v -0.864 c -0.498,0 -0.882,0.162 -1.11,0.474 z" id="path32" inkscape:connector-curvature="0" style="fill:#6a88bd"></path><rect x="162.5" y="271.5" width="42" height="23" rx="1.5" id="rect34" style="stroke:#6a88bd"></rect><path d="m 169.703,278.74 c -1.746,0 -2.904,1.17 -2.904,2.736 0,1.584 1.146,2.76 2.88,2.76 0.474,0 1.008,-0.102 1.374,-0.288 l -0.192,-0.552 c -0.378,0.186 -0.804,0.264 -1.182,0.264 -1.332,0 -2.208,-0.906 -2.208,-2.184 0,-1.254 0.894,-2.166 2.232,-2.166 1.332,0 2.232,0.84 2.232,2.058 0,0.696 -0.168,1.014 -0.444,1.014 -0.162,0 -0.288,-0.096 -0.288,-0.384 v -1.944 h -0.816 v 0.354 c -0.216,-0.258 -0.528,-0.396 -0.924,-0.396 -0.78,0 -1.386,0.612 -1.386,1.512 0,0.906 0.612,1.518 1.386,1.518 0.474,0 0.816,-0.186 1.026,-0.522 0.126,0.342 0.414,0.522 0.822,0.522 0.738,0 1.23,-0.612 1.23,-1.686 0,-1.506 -1.152,-2.616 -2.838,-2.616 z m -0.054,3.612 c -0.438,0 -0.744,-0.312 -0.744,-0.828 0,-0.51 0.306,-0.816 0.744,-0.816 0.432,0 0.75,0.294 0.75,0.816 0,0.528 -0.318,0.828 -0.75,0.828 z m 5.467,-2.628 c -0.402,0 -0.732,0.126 -0.972,0.39 v -1.566 h -0.936 V 283 h 0.894 v -0.372 c 0.234,0.282 0.582,0.42 1.014,0.42 0.906,0 1.608,-0.648 1.608,-1.662 0,-1.014 -0.702,-1.662 -1.608,-1.662 z m -0.162,2.556 c -0.468,0 -0.822,-0.336 -0.822,-0.894 0,-0.558 0.354,-0.894 0.822,-0.894 0.468,0 0.822,0.336 0.822,0.894 0,0.558 -0.354,0.894 -0.822,0.894 z m 3.933,0.768 c 1.026,0 1.77,-0.69 1.77,-1.662 0,-0.972 -0.744,-1.662 -1.77,-1.662 -1.026,0 -1.776,0.69 -1.776,1.662 0,0.972 0.75,1.662 1.776,1.662 z m 0,-0.768 c -0.468,0 -0.828,-0.336 -0.828,-0.894 0,-0.558 0.36,-0.894 0.828,-0.894 0.468,0 0.822,0.336 0.822,0.894 0,0.558 -0.354,0.894 -0.822,0.894 z m 4.226,-0.096 c -0.102,0.078 -0.24,0.12 -0.378,0.12 -0.252,0 -0.402,-0.15 -0.402,-0.426 v -1.314 h 0.804 v -0.72 h -0.804 v -0.786 h -0.936 v 0.786 h -0.498 v 0.72 h 0.498 v 1.326 c 0,0.768 0.444,1.158 1.206,1.158 0.288,0 0.57,-0.066 0.762,-0.204 z m 2.537,0 c -0.102,0.078 -0.24,0.12 -0.378,0.12 -0.252,0 -0.402,-0.15 -0.402,-0.426 v -1.314 h 0.804 v -0.72 h -0.804 v -0.786 h -0.936 v 0.786 h -0.498 v 0.72 h 0.498 v 1.326 c 0,0.768 0.444,1.158 1.206,1.158 0.288,0 0.57,-0.066 0.762,-0.204 z m 2.214,0.864 c 1.026,0 1.77,-0.69 1.77,-1.662 0,-0.972 -0.744,-1.662 -1.77,-1.662 -1.026,0 -1.776,0.69 -1.776,1.662 0,0.972 0.75,1.662 1.776,1.662 z m 0,-0.768 c -0.468,0 -0.828,-0.336 -0.828,-0.894 0,-0.558 0.36,-0.894 0.828,-0.894 0.468,0 0.822,0.336 0.822,0.894 0,0.558 -0.354,0.894 -0.822,0.894 z m 6.529,-2.556 c -0.486,0 -0.906,0.198 -1.164,0.528 -0.228,-0.354 -0.612,-0.528 -1.062,-0.528 -0.414,0 -0.774,0.144 -1.014,0.42 v -0.372 h -0.894 V 283 h 0.936 v -1.62 c 0,-0.576 0.294,-0.846 0.708,-0.846 0.39,0 0.612,0.24 0.612,0.762 V 283 h 0.936 v -1.62 c 0,-0.576 0.294,-0.846 0.714,-0.846 0.378,0 0.612,0.24 0.612,0.762 V 283 h 0.936 v -1.848 c 0,-0.984 -0.552,-1.428 -1.32,-1.428 z m 2.039,1.962 h 1.698 v -0.75 h -1.698 z m -20.267,4.512 v -0.426 h -0.894 V 289 h 0.936 v -1.524 c 0,-0.618 0.342,-0.9 0.858,-0.9 0.072,0 0.132,0.006 0.21,0.012 v -0.864 c -0.498,0 -0.882,0.162 -1.11,0.474 z m 2.134,-0.876 c 0.348,0 0.582,-0.228 0.582,-0.54 0,-0.288 -0.234,-0.504 -0.582,-0.504 -0.348,0 -0.582,0.228 -0.582,0.522 0,0.294 0.234,0.522 0.582,0.522 z M 177.831,289 h 0.936 v -3.228 h -0.936 z m 4.247,-3.228 v 0.414 c -0.246,-0.312 -0.618,-0.462 -1.068,-0.462 -0.894,0 -1.614,0.618 -1.614,1.56 0,0.942 0.72,1.56 1.614,1.56 0.42,0 0.774,-0.132 1.02,-0.402 v 0.138 c 0,0.582 -0.288,0.882 -0.948,0.882 -0.414,0 -0.864,-0.144 -1.14,-0.366 l -0.372,0.672 c 0.378,0.294 0.972,0.444 1.584,0.444 1.164,0 1.812,-0.552 1.812,-1.752 v -2.688 z m -0.882,2.304 c -0.492,0 -0.852,-0.318 -0.852,-0.792 0,-0.474 0.36,-0.792 0.852,-0.792 0.492,0 0.846,0.318 0.846,0.792 0,0.474 -0.354,0.792 -0.846,0.792 z m 4.603,-2.352 c -0.414,0 -0.774,0.132 -1.026,0.384 v -1.56 h -0.936 V 289 h 0.936 v -1.596 c 0,-0.594 0.324,-0.87 0.774,-0.87 0.414,0 0.654,0.24 0.654,0.762 V 289 h 0.936 v -1.848 c 0,-0.984 -0.576,-1.428 -1.338,-1.428 z m 4.017,2.46 c -0.102,0.078 -0.24,0.12 -0.378,0.12 -0.252,0 -0.402,-0.15 -0.402,-0.426 v -1.314 h 0.804 v -0.72 h -0.804 v -0.786 H 188.1 v 0.786 h -0.498 v 0.72 h 0.498 v 1.326 c 0,0.768 0.444,1.158 1.206,1.158 0.288,0 0.57,-0.066 0.762,-0.204 z" id="path36" inkscape:connector-curvature="0" style="fill:#6a88bd"></path><rect x="53.5" y="271.5" width="42" height="23" rx="1.5" id="rect38" style="stroke:#6a88bd"></rect><path d="m 62.203,278.74 c -1.746,0 -2.904,1.17 -2.904,2.736 0,1.584 1.146,2.76 2.88,2.76 0.474,0 1.008,-0.102 1.374,-0.288 l -0.192,-0.552 c -0.378,0.186 -0.804,0.264 -1.182,0.264 -1.332,0 -2.208,-0.906 -2.208,-2.184 0,-1.254 0.894,-2.166 2.232,-2.166 1.332,0 2.232,0.84 2.232,2.058 0,0.696 -0.168,1.014 -0.444,1.014 -0.162,0 -0.288,-0.096 -0.288,-0.384 v -1.944 h -0.816 v 0.354 c -0.216,-0.258 -0.528,-0.396 -0.924,-0.396 -0.78,0 -1.386,0.612 -1.386,1.512 0,0.906 0.612,1.518 1.386,1.518 0.474,0 0.816,-0.186 1.026,-0.522 0.126,0.342 0.414,0.522 0.822,0.522 0.738,0 1.23,-0.612 1.23,-1.686 0,-1.506 -1.152,-2.616 -2.838,-2.616 z m -0.054,3.612 c -0.438,0 -0.744,-0.312 -0.744,-0.828 0,-0.51 0.306,-0.816 0.744,-0.816 0.432,0 0.75,0.294 0.75,0.816 0,0.528 -0.318,0.828 -0.75,0.828 z m 5.467,-2.628 c -0.402,0 -0.732,0.126 -0.972,0.39 v -1.566 H 65.708 V 283 h 0.894 v -0.372 c 0.234,0.282 0.582,0.42 1.014,0.42 0.906,0 1.608,-0.648 1.608,-1.662 0,-1.014 -0.702,-1.662 -1.608,-1.662 z m -0.162,2.556 c -0.468,0 -0.822,-0.336 -0.822,-0.894 0,-0.558 0.354,-0.894 0.822,-0.894 0.468,0 0.822,0.336 0.822,0.894 0,0.558 -0.354,0.894 -0.822,0.894 z m 3.933,0.768 c 1.026,0 1.77,-0.69 1.77,-1.662 0,-0.972 -0.744,-1.662 -1.77,-1.662 -1.026,0 -1.776,0.69 -1.776,1.662 0,0.972 0.75,1.662 1.776,1.662 z m 0,-0.768 c -0.468,0 -0.828,-0.336 -0.828,-0.894 0,-0.558 0.36,-0.894 0.828,-0.894 0.468,0 0.822,0.336 0.822,0.894 0,0.558 -0.354,0.894 -0.822,0.894 z m 4.226,-0.096 c -0.102,0.078 -0.24,0.12 -0.378,0.12 -0.252,0 -0.402,-0.15 -0.402,-0.426 v -1.314 h 0.804 v -0.72 h -0.804 v -0.786 h -0.936 v 0.786 h -0.498 v 0.72 h 0.498 v 1.326 c 0,0.768 0.444,1.158 1.206,1.158 0.288,0 0.57,-0.066 0.762,-0.204 z m 2.537,0 c -0.102,0.078 -0.24,0.12 -0.378,0.12 -0.252,0 -0.402,-0.15 -0.402,-0.426 v -1.314 h 0.804 v -0.72 H 77.37 v -0.786 h -0.936 v 0.786 h -0.498 v 0.72 h 0.498 v 1.326 c 0,0.768 0.444,1.158 1.206,1.158 0.288,0 0.57,-0.066 0.762,-0.204 z m 2.214,0.864 c 1.026,0 1.77,-0.69 1.77,-1.662 0,-0.972 -0.744,-1.662 -1.77,-1.662 -1.026,0 -1.776,0.69 -1.776,1.662 0,0.972 0.75,1.662 1.776,1.662 z m 0,-0.768 c -0.468,0 -0.828,-0.336 -0.828,-0.894 0,-0.558 0.36,-0.894 0.828,-0.894 0.468,0 0.822,0.336 0.822,0.894 0,0.558 -0.354,0.894 -0.822,0.894 z m 6.529,-2.556 c -0.486,0 -0.906,0.198 -1.164,0.528 -0.228,-0.354 -0.612,-0.528 -1.062,-0.528 -0.414,0 -0.774,0.144 -1.014,0.42 v -0.372 H 82.759 V 283 h 0.936 v -1.62 c 0,-0.576 0.294,-0.846 0.708,-0.846 0.39,0 0.612,0.24 0.612,0.762 V 283 h 0.936 v -1.62 c 0,-0.576 0.294,-0.846 0.714,-0.846 0.378,0 0.612,0.24 0.612,0.762 V 283 h 0.936 v -1.848 c 0,-0.984 -0.552,-1.428 -1.32,-1.428 z m 2.039,1.962 h 1.698 v -0.75 H 88.932 Z M 70.173,289 h 0.936 v -4.452 h -0.936 z m 4.967,-1.602 c 0,-1.038 -0.732,-1.674 -1.68,-1.674 -0.984,0 -1.722,0.696 -1.722,1.662 0,0.96 0.726,1.662 1.842,1.662 0.582,0 1.032,-0.18 1.332,-0.522 l -0.498,-0.54 c -0.222,0.21 -0.468,0.312 -0.81,0.312 -0.492,0 -0.834,-0.246 -0.924,-0.648 h 2.442 c 0.006,-0.078 0.018,-0.18 0.018,-0.252 z m -1.674,-0.966 c 0.42,0 0.726,0.264 0.792,0.672 h -1.59 c 0.066,-0.414 0.372,-0.672 0.798,-0.672 z m 3.323,-0.726 c 0,-0.318 0.15,-0.468 0.426,-0.468 0.144,0 0.276,0.042 0.378,0.114 l 0.246,-0.678 c -0.174,-0.12 -0.45,-0.174 -0.714,-0.174 -0.804,0 -1.248,0.474 -1.248,1.2 v 0.144 h -0.498 v 0.72 h 0.498 V 289 h 0.936 v -2.436 h 0.804 v -0.72 h -0.828 z m 3.124,2.478 c -0.102,0.078 -0.24,0.12 -0.378,0.12 -0.252,0 -0.402,-0.15 -0.402,-0.426 v -1.314 h 0.804 v -0.72 h -0.804 v -0.786 h -0.936 v 0.786 h -0.498 v 0.72 h 0.498 v 1.326 c 0,0.768 0.444,1.158 1.206,1.158 0.288,0 0.57,-0.066 0.762,-0.204 z" id="path40" inkscape:connector-curvature="0" style="fill:#6a88bd"></path><rect x="103.5" y="271.5" width="52" height="23" rx="1.5" id="rect42" style="stroke:#6a88bd"></rect><path d="m 116.703,278.74 c -1.746,0 -2.904,1.17 -2.904,2.736 0,1.584 1.146,2.76 2.88,2.76 0.474,0 1.008,-0.102 1.374,-0.288 l -0.192,-0.552 c -0.378,0.186 -0.804,0.264 -1.182,0.264 -1.332,0 -2.208,-0.906 -2.208,-2.184 0,-1.254 0.894,-2.166 2.232,-2.166 1.332,0 2.232,0.84 2.232,2.058 0,0.696 -0.168,1.014 -0.444,1.014 -0.162,0 -0.288,-0.096 -0.288,-0.384 v -1.944 h -0.816 v 0.354 c -0.216,-0.258 -0.528,-0.396 -0.924,-0.396 -0.78,0 -1.386,0.612 -1.386,1.512 0,0.906 0.612,1.518 1.386,1.518 0.474,0 0.816,-0.186 1.026,-0.522 0.126,0.342 0.414,0.522 0.822,0.522 0.738,0 1.23,-0.612 1.23,-1.686 0,-1.506 -1.152,-2.616 -2.838,-2.616 z m -0.054,3.612 c -0.438,0 -0.744,-0.312 -0.744,-0.828 0,-0.51 0.306,-0.816 0.744,-0.816 0.432,0 0.75,0.294 0.75,0.816 0,0.528 -0.318,0.828 -0.75,0.828 z m 5.467,-2.628 c -0.402,0 -0.732,0.126 -0.972,0.39 v -1.566 h -0.936 V 283 h 0.894 v -0.372 c 0.234,0.282 0.582,0.42 1.014,0.42 0.906,0 1.608,-0.648 1.608,-1.662 0,-1.014 -0.702,-1.662 -1.608,-1.662 z m -0.162,2.556 c -0.468,0 -0.822,-0.336 -0.822,-0.894 0,-0.558 0.354,-0.894 0.822,-0.894 0.468,0 0.822,0.336 0.822,0.894 0,0.558 -0.354,0.894 -0.822,0.894 z m 3.933,0.768 c 1.026,0 1.77,-0.69 1.77,-1.662 0,-0.972 -0.744,-1.662 -1.77,-1.662 -1.026,0 -1.776,0.69 -1.776,1.662 0,0.972 0.75,1.662 1.776,1.662 z m 0,-0.768 c -0.468,0 -0.828,-0.336 -0.828,-0.894 0,-0.558 0.36,-0.894 0.828,-0.894 0.468,0 0.822,0.336 0.822,0.894 0,0.558 -0.354,0.894 -0.822,0.894 z m 4.226,-0.096 c -0.102,0.078 -0.24,0.12 -0.378,0.12 -0.252,0 -0.402,-0.15 -0.402,-0.426 v -1.314 h 0.804 v -0.72 h -0.804 v -0.786 h -0.936 v 0.786 h -0.498 v 0.72 h 0.498 v 1.326 c 0,0.768 0.444,1.158 1.206,1.158 0.288,0 0.57,-0.066 0.762,-0.204 z m 2.537,0 c -0.102,0.078 -0.24,0.12 -0.378,0.12 -0.252,0 -0.402,-0.15 -0.402,-0.426 v -1.314 h 0.804 v -0.72 h -0.804 v -0.786 h -0.936 v 0.786 h -0.498 v 0.72 h 0.498 v 1.326 c 0,0.768 0.444,1.158 1.206,1.158 0.288,0 0.57,-0.066 0.762,-0.204 z m 2.214,0.864 c 1.026,0 1.77,-0.69 1.77,-1.662 0,-0.972 -0.744,-1.662 -1.77,-1.662 -1.026,0 -1.776,0.69 -1.776,1.662 0,0.972 0.75,1.662 1.776,1.662 z m 0,-0.768 c -0.468,0 -0.828,-0.336 -0.828,-0.894 0,-0.558 0.36,-0.894 0.828,-0.894 0.468,0 0.822,0.336 0.822,0.894 0,0.558 -0.354,0.894 -0.822,0.894 z m 6.529,-2.556 c -0.486,0 -0.906,0.198 -1.164,0.528 -0.228,-0.354 -0.612,-0.528 -1.062,-0.528 -0.414,0 -0.774,0.144 -1.014,0.42 v -0.372 h -0.894 V 283 h 0.936 v -1.62 c 0,-0.576 0.294,-0.846 0.708,-0.846 0.39,0 0.612,0.24 0.612,0.762 V 283 h 0.936 v -1.62 c 0,-0.576 0.294,-0.846 0.714,-0.846 0.378,0 0.612,0.24 0.612,0.762 V 283 h 0.936 v -1.848 c 0,-0.984 -0.552,-1.428 -1.32,-1.428 z m 2.039,1.962 h 1.698 v -0.75 h -1.698 z m -22.097,7.362 c 0.678,0 1.212,-0.3 1.446,-0.816 l -0.726,-0.396 c -0.174,0.312 -0.432,0.444 -0.726,0.444 -0.474,0 -0.846,-0.33 -0.846,-0.894 0,-0.564 0.372,-0.894 0.846,-0.894 0.294,0 0.552,0.138 0.726,0.444 l 0.726,-0.39 c -0.234,-0.528 -0.768,-0.822 -1.446,-0.822 -1.05,0 -1.8,0.69 -1.8,1.662 0,0.972 0.75,1.662 1.8,1.662 z m 5.106,-1.65 c 0,-1.038 -0.732,-1.674 -1.68,-1.674 -0.984,0 -1.722,0.696 -1.722,1.662 0,0.96 0.726,1.662 1.842,1.662 0.582,0 1.032,-0.18 1.332,-0.522 l -0.498,-0.54 c -0.222,0.21 -0.468,0.312 -0.81,0.312 -0.492,0 -0.834,-0.246 -0.924,-0.648 h 2.442 c 0.006,-0.078 0.018,-0.18 0.018,-0.252 z m -1.674,-0.966 c 0.42,0 0.726,0.264 0.792,0.672 h -1.59 c 0.066,-0.414 0.372,-0.672 0.798,-0.672 z m 4.259,-0.708 c -0.438,0 -0.816,0.15 -1.068,0.426 v -0.378 h -0.894 V 289 H 128 v -1.596 c 0,-0.594 0.324,-0.87 0.774,-0.87 0.414,0 0.654,0.24 0.654,0.762 V 289 h 0.936 v -1.848 c 0,-0.984 -0.576,-1.428 -1.338,-1.428 z m 4.016,2.46 c -0.102,0.078 -0.24,0.12 -0.378,0.12 -0.252,0 -0.402,-0.15 -0.402,-0.426 v -1.314 h 0.804 v -0.72 h -0.804 v -0.786 h -0.936 v 0.786 h -0.498 v 0.72 h 0.498 v 1.326 c 0,0.768 0.444,1.158 1.206,1.158 0.288,0 0.57,-0.066 0.762,-0.204 z m 3.84,-0.786 c 0,-1.038 -0.732,-1.674 -1.68,-1.674 -0.984,0 -1.722,0.696 -1.722,1.662 0,0.96 0.726,1.662 1.842,1.662 0.582,0 1.032,-0.18 1.332,-0.522 l -0.498,-0.54 c -0.222,0.21 -0.468,0.312 -0.81,0.312 -0.492,0 -0.834,-0.246 -0.924,-0.648 h 2.442 c 0.006,-0.078 0.018,-0.18 0.018,-0.252 z m -1.674,-0.966 c 0.42,0 0.726,0.264 0.792,0.672 h -1.59 c 0.066,-0.414 0.372,-0.672 0.798,-0.672 z m 3.191,-0.234 v -0.426 h -0.894 V 289 h 0.936 v -1.524 c 0,-0.618 0.342,-0.9 0.858,-0.9 0.072,0 0.132,0.006 0.21,0.012 v -0.864 c -0.498,0 -0.882,0.162 -1.11,0.474 z" id="path44" inkscape:connector-curvature="0" style="fill:#6a88bd"></path><rect x="211.5" y="39.5" width="39" height="65" rx="1.5" id="rect46" style="stroke:#d74276"></rect><path d="m 222.243,66.74 c -1.746,0 -2.904,1.17 -2.904,2.736 0,1.584 1.146,2.76 2.88,2.76 0.474,0 1.008,-0.102 1.374,-0.288 l -0.192,-0.552 c -0.378,0.186 -0.804,0.264 -1.182,0.264 -1.332,0 -2.208,-0.906 -2.208,-2.184 0,-1.254 0.894,-2.166 2.232,-2.166 1.332,0 2.232,0.84 2.232,2.058 0,0.696 -0.168,1.014 -0.444,1.014 -0.162,0 -0.288,-0.096 -0.288,-0.384 v -1.944 h -0.816 v 0.354 c -0.216,-0.258 -0.528,-0.396 -0.924,-0.396 -0.78,0 -1.386,0.612 -1.386,1.512 0,0.906 0.612,1.518 1.386,1.518 0.474,0 0.816,-0.186 1.026,-0.522 0.126,0.342 0.414,0.522 0.822,0.522 0.738,0 1.23,-0.612 1.23,-1.686 0,-1.506 -1.152,-2.616 -2.838,-2.616 z m -0.054,3.612 c -0.438,0 -0.744,-0.312 -0.744,-0.828 0,-0.51 0.306,-0.816 0.744,-0.816 0.432,0 0.75,0.294 0.75,0.816 0,0.528 -0.318,0.828 -0.75,0.828 z m 4.453,-2.154 v -0.426 h -0.894 V 71 h 0.936 v -1.524 c 0,-0.618 0.342,-0.9 0.858,-0.9 0.072,0 0.132,0.006 0.21,0.012 v -0.864 c -0.498,0 -0.882,0.162 -1.11,0.474 z m 2.135,-0.876 c 0.348,0 0.582,-0.228 0.582,-0.54 0,-0.288 -0.234,-0.504 -0.582,-0.504 -0.348,0 -0.582,0.228 -0.582,0.522 0,0.294 0.234,0.522 0.582,0.522 z M 228.309,71 h 0.936 v -3.228 h -0.936 z m 4.247,-3.228 v 0.414 c -0.246,-0.312 -0.618,-0.462 -1.068,-0.462 -0.894,0 -1.614,0.618 -1.614,1.56 0,0.942 0.72,1.56 1.614,1.56 0.42,0 0.774,-0.132 1.02,-0.402 v 0.138 c 0,0.582 -0.288,0.882 -0.948,0.882 -0.414,0 -0.864,-0.144 -1.14,-0.366 l -0.372,0.672 c 0.378,0.294 0.972,0.444 1.584,0.444 1.164,0 1.812,-0.552 1.812,-1.752 v -2.688 z m -0.882,2.304 c -0.492,0 -0.852,-0.318 -0.852,-0.792 0,-0.474 0.36,-0.792 0.852,-0.792 0.492,0 0.846,0.318 0.846,0.792 0,0.474 -0.354,0.792 -0.846,0.792 z m 4.603,-2.352 c -0.414,0 -0.774,0.132 -1.026,0.384 v -1.56 h -0.936 V 71 h 0.936 v -1.596 c 0,-0.594 0.324,-0.87 0.774,-0.87 0.414,0 0.654,0.24 0.654,0.762 V 71 h 0.936 v -1.848 c 0,-0.984 -0.576,-1.428 -1.338,-1.428 z m 4.016,2.46 c -0.102,0.078 -0.24,0.12 -0.378,0.12 -0.252,0 -0.402,-0.15 -0.402,-0.426 v -1.314 h 0.804 v -0.72 h -0.804 v -0.786 h -0.936 v 0.786 h -0.498 v 0.72 h 0.498 v 1.326 c 0,0.768 0.444,1.158 1.206,1.158 0.288,0 0.57,-0.066 0.762,-0.204 z m 0.599,-0.498 h 1.698 v -0.75 h -1.698 z m -12.921,6.498 c -0.102,0.078 -0.24,0.12 -0.378,0.12 -0.252,0 -0.402,-0.15 -0.402,-0.426 v -1.314 h 0.804 v -0.72 h -0.804 v -0.786 h -0.936 v 0.786 h -0.498 v 0.72 h 0.498 v 1.326 c 0,0.768 0.444,1.158 1.206,1.158 0.288,0 0.57,-0.066 0.762,-0.204 z m 2.214,0.864 c 1.026,0 1.77,-0.69 1.77,-1.662 0,-0.972 -0.744,-1.662 -1.77,-1.662 -1.026,0 -1.776,0.69 -1.776,1.662 0,0.972 0.75,1.662 1.776,1.662 z m 0,-0.768 c -0.468,0 -0.828,-0.336 -0.828,-0.894 0,-0.558 0.36,-0.894 0.828,-0.894 0.468,0 0.822,0.336 0.822,0.894 0,0.558 -0.354,0.894 -0.822,0.894 z m 4.303,-2.556 c -0.432,0 -0.78,0.138 -1.014,0.42 v -0.372 h -0.894 v 4.392 h 0.936 v -1.506 c 0.24,0.264 0.57,0.39 0.972,0.39 0.906,0 1.608,-0.648 1.608,-1.662 0,-1.014 -0.702,-1.662 -1.608,-1.662 z m -0.162,2.556 c -0.468,0 -0.822,-0.336 -0.822,-0.894 0,-0.558 0.354,-0.894 0.822,-0.894 0.468,0 0.822,0.336 0.822,0.894 0,0.558 -0.354,0.894 -0.822,0.894 z" id="path48" inkscape:connector-curvature="0" style="fill:#d74276"></path><rect x="7.5" y="39.5" width="39" height="65" rx="1.5" id="rect50" style="stroke:#d74276"></rect><path d="m 21.146,66.74 c -1.7462,0 -2.9042,1.17 -2.9042,2.736 0,1.584 1.146,2.76 2.8802,2.76 0.474,0 1.008,-0.102 1.374,-0.288 l -0.192,-0.552 c -0.378,0.186 -0.804,0.264 -1.182,0.264 -1.3322,0 -2.2082,-0.906 -2.2082,-2.184 0,-1.254 0.894,-2.166 2.2322,-2.166 1.332,0 2.232,0.84 2.232,2.058 0,0.696 -0.168,1.014 -0.444,1.014 -0.162,0 -0.288,-0.096 -0.288,-0.384 V 68.054 H 21.83 v 0.354 c -0.216,-0.258 -0.528,-0.396 -0.9242,-0.396 -0.78,0 -1.386,0.612 -1.386,1.512 0,0.906 0.612,1.518 1.386,1.518 0.4742,0 0.8162,-0.186 1.0262,-0.522 0.126,0.342 0.414,0.522 0.822,0.522 0.738,0 1.23,-0.612 1.23,-1.686 0,-1.506 -1.152,-2.616 -2.838,-2.616 z m -0.054,3.612 c -0.4382,0 -0.7442,-0.312 -0.7442,-0.828 0,-0.51 0.306,-0.816 0.7442,-0.816 0.432,0 0.75,0.294 0.75,0.816 0,0.528 -0.318,0.828 -0.75,0.828 z M 24.651,71 h 0.936 v -4.452 h -0.936 z m 4.966,-1.602 c 0,-1.038 -0.732,-1.674 -1.68,-1.674 -0.984,0 -1.722,0.696 -1.722,1.662 0,0.96 0.726,1.662 1.842,1.662 0.582,0 1.032,-0.18 1.332,-0.522 l -0.498,-0.54 c -0.222,0.21 -0.468,0.312 -0.81,0.312 -0.492,0 -0.834,-0.246 -0.924,-0.648 h 2.442 c 0.006,-0.078 0.018,-0.18 0.018,-0.252 z m -1.674,-0.966 c 0.42,0 0.726,0.264 0.792,0.672 h -1.59 c 0.066,-0.414 0.372,-0.672 0.798,-0.672 z m 3.324,-0.726 c 0,-0.318 0.15,-0.468 0.426,-0.468 0.144,0 0.276,0.042 0.378,0.114 l 0.246,-0.678 c -0.174,-0.12 -0.45,-0.174 -0.714,-0.174 -0.804,0 -1.248,0.474 -1.248,1.2 v 0.144 h -0.498 v 0.72 h 0.498 V 71 h 0.936 v -2.436 h 0.804 v -0.72 h -0.828 z m 3.124,2.478 c -0.102,0.078 -0.24,0.12 -0.378,0.12 -0.252,0 -0.402,-0.15 -0.402,-0.426 v -1.314 h 0.804 v -0.72 h -0.804 v -0.786 h -0.936 v 0.786 h -0.498 v 0.72 h 0.498 v 1.326 c 0,0.768 0.444,1.158 1.206,1.158 0.288,0 0.57,-0.066 0.762,-0.204 z m 0.599,-0.498 h 1.698 v -0.75 H 34.99 Z m -10.519,6.498 c -0.102,0.078 -0.24,0.12 -0.378,0.12 -0.252,0 -0.402,-0.15 -0.402,-0.426 v -1.314 h 0.804 v -0.72 h -0.804 v -0.786 h -0.936 v 0.786 h -0.498 v 0.72 h 0.498 v 1.326 c 0,0.768 0.444,1.158 1.206,1.158 0.288,0 0.57,-0.066 0.762,-0.204 z m 2.214,0.864 c 1.026,0 1.77,-0.69 1.77,-1.662 0,-0.972 -0.744,-1.662 -1.77,-1.662 -1.026,0 -1.776,0.69 -1.776,1.662 0,0.972 0.75,1.662 1.776,1.662 z m 0,-0.768 c -0.468,0 -0.828,-0.336 -0.828,-0.894 0,-0.558 0.36,-0.894 0.828,-0.894 0.468,0 0.822,0.336 0.822,0.894 0,0.558 -0.354,0.894 -0.822,0.894 z m 4.303,-2.556 c -0.432,0 -0.78,0.138 -1.014,0.42 V 73.772 H 29.08 v 4.392 h 0.936 v -1.506 c 0.24,0.264 0.57,0.39 0.972,0.39 0.906,0 1.608,-0.648 1.608,-1.662 0,-1.014 -0.702,-1.662 -1.608,-1.662 z m -0.162,2.556 c -0.468,0 -0.822,-0.336 -0.822,-0.894 0,-0.558 0.354,-0.894 0.822,-0.894 0.468,0 0.822,0.336 0.822,0.894 0,0.558 -0.354,0.894 -0.822,0.894 z" id="path52" inkscape:connector-curvature="0" style="fill:#d74276"></path><rect x="211.5" y="113.5" width="39" height="74" rx="1.5" id="rect54" style="stroke:#d74276"></rect><path d="m 222.243,144.74 c -1.746,0 -2.904,1.17 -2.904,2.736 0,1.584 1.146,2.76 2.88,2.76 0.474,0 1.008,-0.102 1.374,-0.288 l -0.192,-0.552 c -0.378,0.186 -0.804,0.264 -1.182,0.264 -1.332,0 -2.208,-0.906 -2.208,-2.184 0,-1.254 0.894,-2.166 2.232,-2.166 1.332,0 2.232,0.84 2.232,2.058 0,0.696 -0.168,1.014 -0.444,1.014 -0.162,0 -0.288,-0.096 -0.288,-0.384 v -1.944 h -0.816 v 0.354 c -0.216,-0.258 -0.528,-0.396 -0.924,-0.396 -0.78,0 -1.386,0.612 -1.386,1.512 0,0.906 0.612,1.518 1.386,1.518 0.474,0 0.816,-0.186 1.026,-0.522 0.126,0.342 0.414,0.522 0.822,0.522 0.738,0 1.23,-0.612 1.23,-1.686 0,-1.506 -1.152,-2.616 -2.838,-2.616 z m -0.054,3.612 c -0.438,0 -0.744,-0.312 -0.744,-0.828 0,-0.51 0.306,-0.816 0.744,-0.816 0.432,0 0.75,0.294 0.75,0.816 0,0.528 -0.318,0.828 -0.75,0.828 z m 4.453,-2.154 v -0.426 h -0.894 V 149 h 0.936 v -1.524 c 0,-0.618 0.342,-0.9 0.858,-0.9 0.072,0 0.132,0.006 0.21,0.012 v -0.864 c -0.498,0 -0.882,0.162 -1.11,0.474 z m 2.135,-0.876 c 0.348,0 0.582,-0.228 0.582,-0.54 0,-0.288 -0.234,-0.504 -0.582,-0.504 -0.348,0 -0.582,0.228 -0.582,0.522 0,0.294 0.234,0.522 0.582,0.522 z M 228.309,149 h 0.936 v -3.228 h -0.936 z m 4.247,-3.228 v 0.414 c -0.246,-0.312 -0.618,-0.462 -1.068,-0.462 -0.894,0 -1.614,0.618 -1.614,1.56 0,0.942 0.72,1.56 1.614,1.56 0.42,0 0.774,-0.132 1.02,-0.402 v 0.138 c 0,0.582 -0.288,0.882 -0.948,0.882 -0.414,0 -0.864,-0.144 -1.14,-0.366 l -0.372,0.672 c 0.378,0.294 0.972,0.444 1.584,0.444 1.164,0 1.812,-0.552 1.812,-1.752 v -2.688 z m -0.882,2.304 c -0.492,0 -0.852,-0.318 -0.852,-0.792 0,-0.474 0.36,-0.792 0.852,-0.792 0.492,0 0.846,0.318 0.846,0.792 0,0.474 -0.354,0.792 -0.846,0.792 z m 4.603,-2.352 c -0.414,0 -0.774,0.132 -1.026,0.384 v -1.56 h -0.936 V 149 h 0.936 v -1.596 c 0,-0.594 0.324,-0.87 0.774,-0.87 0.414,0 0.654,0.24 0.654,0.762 V 149 h 0.936 v -1.848 c 0,-0.984 -0.576,-1.428 -1.338,-1.428 z m 4.016,2.46 c -0.102,0.078 -0.24,0.12 -0.378,0.12 -0.252,0 -0.402,-0.15 -0.402,-0.426 v -1.314 h 0.804 v -0.72 h -0.804 v -0.786 h -0.936 v 0.786 h -0.498 v 0.72 h 0.498 v 1.326 c 0,0.768 0.444,1.158 1.206,1.158 0.288,0 0.57,-0.066 0.762,-0.204 z m 0.599,-0.498 h 1.698 v -0.75 h -1.698 z m -16.324,4.038 c -0.486,0 -0.906,0.198 -1.164,0.528 -0.228,-0.354 -0.612,-0.528 -1.062,-0.528 -0.414,0 -0.774,0.144 -1.014,0.42 v -0.372 h -0.894 V 155 h 0.936 v -1.62 c 0,-0.576 0.294,-0.846 0.708,-0.846 0.39,0 0.612,0.24 0.612,0.762 V 155 h 0.936 v -1.62 c 0,-0.576 0.294,-0.846 0.714,-0.846 0.378,0 0.612,0.24 0.612,0.762 V 155 h 0.936 v -1.848 c 0,-0.984 -0.552,-1.428 -1.32,-1.428 z m 2.627,-0.402 c 0.348,0 0.582,-0.228 0.582,-0.54 0,-0.288 -0.234,-0.504 -0.582,-0.504 -0.348,0 -0.582,0.228 -0.582,0.522 0,0.294 0.234,0.522 0.582,0.522 z M 226.727,155 h 0.936 v -3.228 h -0.936 z m 4.157,-4.452 v 1.566 c -0.234,-0.264 -0.57,-0.39 -0.966,-0.39 -0.912,0 -1.614,0.648 -1.614,1.662 0,1.014 0.702,1.662 1.614,1.662 0.432,0 0.774,-0.138 1.008,-0.42 V 155 h 0.894 v -4.452 z m -0.804,3.732 c -0.468,0 -0.828,-0.336 -0.828,-0.894 0,-0.558 0.36,-0.894 0.828,-0.894 0.462,0 0.822,0.336 0.822,0.894 0,0.558 -0.36,0.894 -0.822,0.894 z m 4.958,-3.732 v 1.566 c -0.234,-0.264 -0.57,-0.39 -0.966,-0.39 -0.912,0 -1.614,0.648 -1.614,1.662 0,1.014 0.702,1.662 1.614,1.662 0.432,0 0.774,-0.138 1.008,-0.42 V 155 h 0.894 v -4.452 z m -0.804,3.732 c -0.468,0 -0.828,-0.336 -0.828,-0.894 0,-0.558 0.36,-0.894 0.828,-0.894 0.462,0 0.822,0.336 0.822,0.894 0,0.558 -0.36,0.894 -0.822,0.894 z m 2.606,0.72 h 0.936 v -4.452 h -0.936 z m 4.967,-1.602 c 0,-1.038 -0.732,-1.674 -1.68,-1.674 -0.984,0 -1.722,0.696 -1.722,1.662 0,0.96 0.726,1.662 1.842,1.662 0.582,0 1.032,-0.18 1.332,-0.522 l -0.498,-0.54 c -0.222,0.21 -0.468,0.312 -0.81,0.312 -0.492,0 -0.834,-0.246 -0.924,-0.648 h 2.442 c 0.006,-0.078 0.018,-0.18 0.018,-0.252 z m -1.674,-0.966 c 0.42,0 0.726,0.264 0.792,0.672 h -1.59 c 0.066,-0.414 0.372,-0.672 0.798,-0.672 z" id="path56" inkscape:connector-curvature="0" style="fill:#d74276"></path><rect x="7.5" y="113.5" width="39" height="74" rx="1.5" id="rect58" style="stroke:#d74276"></rect><path d="m 20.6458,144.74 c -1.746,0 -2.904,1.17 -2.904,2.736 0,1.584 1.146,2.76 2.88,2.76 0.4742,0 1.0082,-0.102 1.3742,-0.288 l -0.192,-0.552 c -0.378,0.186 -0.8042,0.264 -1.1822,0.264 -1.332,0 -2.208,-0.906 -2.208,-2.184 0,-1.254 0.894,-2.166 2.232,-2.166 1.3322,0 2.2322,0.84 2.2322,2.058 0,0.696 -0.168,1.014 -0.444,1.014 -0.162,0 -0.288,-0.096 -0.288,-0.384 v -1.944 H 21.33 v 0.354 c -0.216,-0.258 -0.5282,-0.396 -0.9242,-0.396 -0.78,0 -1.386,0.612 -1.386,1.512 0,0.906 0.612,1.518 1.386,1.518 0.474,0 0.8162,-0.186 1.0262,-0.522 0.126,0.342 0.414,0.522 0.822,0.522 0.738,0 1.23,-0.612 1.23,-1.686 0,-1.506 -1.152,-2.616 -2.8382,-2.616 z m -0.054,3.612 c -0.438,0 -0.744,-0.312 -0.744,-0.828 0,-0.51 0.306,-0.816 0.744,-0.816 0.4322,0 0.7502,0.294 0.7502,0.816 0,0.528 -0.318,0.828 -0.7502,0.828 z M 24.151,149 h 0.936 v -4.452 h -0.936 z m 4.966,-1.602 c 0,-1.038 -0.732,-1.674 -1.68,-1.674 -0.984,0 -1.722,0.696 -1.722,1.662 0,0.96 0.726,1.662 1.842,1.662 0.582,0 1.032,-0.18 1.332,-0.522 l -0.498,-0.54 c -0.222,0.21 -0.468,0.312 -0.81,0.312 -0.492,0 -0.834,-0.246 -0.924,-0.648 h 2.442 c 0.006,-0.078 0.018,-0.18 0.018,-0.252 z m -1.674,-0.966 c 0.42,0 0.726,0.264 0.792,0.672 h -1.59 c 0.066,-0.414 0.372,-0.672 0.798,-0.672 z m 3.324,-0.726 c 0,-0.318 0.15,-0.468 0.426,-0.468 0.144,0 0.276,0.042 0.378,0.114 l 0.246,-0.678 c -0.174,-0.12 -0.45,-0.174 -0.714,-0.174 -0.804,0 -1.248,0.474 -1.248,1.2 v 0.144 h -0.498 v 0.72 h 0.498 V 149 h 0.936 v -2.436 h 0.804 v -0.72 h -0.828 z m 3.124,2.478 c -0.102,0.078 -0.24,0.12 -0.378,0.12 -0.252,0 -0.402,-0.15 -0.402,-0.426 v -1.314 h 0.804 v -0.72 h -0.804 v -0.786 h -0.936 v 0.786 h -0.498 v 0.72 h 0.498 v 1.326 c 0,0.768 0.444,1.158 1.206,1.158 0.288,0 0.57,-0.066 0.762,-0.204 z m 0.599,-0.498 h 1.698 v -0.75 H 34.49 Z m -13.922,4.038 c -0.486,0 -0.906,0.198 -1.164,0.528 -0.228,-0.354 -0.612,-0.528 -1.062,-0.528 -0.414,0 -0.774,0.144 -1.014,0.42 v -0.372 H 16.434 V 155 h 0.936 v -1.62 c 0,-0.576 0.294,-0.846 0.708,-0.846 0.39,0 0.612,0.24 0.612,0.762 V 155 h 0.936 v -1.62 c 0,-0.576 0.294,-0.846 0.714,-0.846 0.378,0 0.612,0.24 0.612,0.762 V 155 h 0.936 v -1.848 c 0,-0.984 -0.552,-1.428 -1.32,-1.428 z m 2.627,-0.402 c 0.348,0 0.582,-0.228 0.582,-0.54 0,-0.288 -0.234,-0.504 -0.582,-0.504 -0.348,0 -0.582,0.228 -0.582,0.522 0,0.294 0.234,0.522 0.582,0.522 z M 22.727,155 h 0.936 v -3.228 h -0.936 z m 4.157,-4.452 v 1.566 c -0.234,-0.264 -0.57,-0.39 -0.966,-0.39 -0.912,0 -1.614,0.648 -1.614,1.662 0,1.014 0.702,1.662 1.614,1.662 0.432,0 0.774,-0.138 1.008,-0.42 V 155 h 0.894 v -4.452 z m -0.804,3.732 c -0.468,0 -0.828,-0.336 -0.828,-0.894 0,-0.558 0.36,-0.894 0.828,-0.894 0.462,0 0.822,0.336 0.822,0.894 0,0.558 -0.36,0.894 -0.822,0.894 z m 4.958,-3.732 v 1.566 c -0.234,-0.264 -0.57,-0.39 -0.966,-0.39 -0.912,0 -1.614,0.648 -1.614,1.662 0,1.014 0.702,1.662 1.614,1.662 0.432,0 0.774,-0.138 1.008,-0.42 V 155 h 0.894 v -4.452 z m -0.804,3.732 c -0.468,0 -0.828,-0.336 -0.828,-0.894 0,-0.558 0.36,-0.894 0.828,-0.894 0.462,0 0.822,0.336 0.822,0.894 0,0.558 -0.36,0.894 -0.822,0.894 z M 32.84,155 h 0.936 v -4.452 H 32.84 Z m 4.967,-1.602 c 0,-1.038 -0.732,-1.674 -1.68,-1.674 -0.984,0 -1.722,0.696 -1.722,1.662 0,0.96 0.726,1.662 1.842,1.662 0.582,0 1.032,-0.18 1.332,-0.522 l -0.498,-0.54 c -0.222,0.21 -0.468,0.312 -0.81,0.312 -0.492,0 -0.834,-0.246 -0.924,-0.648 h 2.442 c 0.006,-0.078 0.018,-0.18 0.018,-0.252 z m -1.674,-0.966 c 0.42,0 0.726,0.264 0.792,0.672 h -1.59 c 0.066,-0.414 0.372,-0.672 0.798,-0.672 z" id="path60" inkscape:connector-curvature="0" style="fill:#d74276"></path><path d="m 121.874,138.6 h -3.276 v 8.4 h 1.2 v -2.544 h 2.076 c 2.184,0 3.504,-1.104 3.504,-2.928 0,-1.824 -1.32,-2.928 -3.504,-2.928 z m -0.036,4.812 h -2.04 v -3.768 h 2.04 c 1.536,0 2.34,0.684 2.34,1.884 0,1.2 -0.804,1.884 -2.34,1.884 z m 7.392,-2.832 c -1.02,0 -1.968,0.288 -2.628,0.816 l 0.48,0.864 c 0.492,-0.42 1.26,-0.684 2.016,-0.684 1.14,0 1.704,0.564 1.704,1.536 v 0.228 h -1.824 c -1.896,0 -2.556,0.84 -2.556,1.86 0,1.104 0.912,1.872 2.352,1.872 0.996,0 1.704,-0.336 2.088,-0.912 V 147 h 1.092 v -3.84 c 0,-1.74 -0.984,-2.58 -2.724,-2.58 z m -0.264,5.604 c -0.876,0 -1.404,-0.396 -1.404,-1.032 0,-0.54 0.324,-0.984 1.464,-0.984 h 1.776 v 0.888 c -0.288,0.732 -0.972,1.128 -1.836,1.128 z m 10.147,-5.544 v 0.984 c -0.54,-0.696 -1.404,-1.044 -2.352,-1.044 -1.836,0 -3.228,1.236 -3.228,3.072 0,1.836 1.392,3.084 3.228,3.084 0.912,0 1.74,-0.324 2.292,-0.984 v 0.504 c 0,1.44 -0.684,2.136 -2.184,2.136 -0.936,0 -1.86,-0.324 -2.448,-0.828 l -0.552,0.888 c 0.696,0.624 1.872,0.948 3.036,0.948 2.16,0 3.3,-1.02 3.3,-3.264 v -5.496 z m -2.22,5.088 c -1.284,0 -2.196,-0.852 -2.196,-2.076 0,-1.236 0.912,-2.064 2.196,-2.064 1.272,0 2.184,0.828 2.184,2.064 0,1.224 -0.912,2.076 -2.184,2.076 z m 11.261,-1.872 c 0,-1.956 -1.308,-3.276 -3.144,-3.276 -1.836,0 -3.192,1.356 -3.192,3.24 0,1.896 1.368,3.252 3.42,3.252 1.056,0 1.932,-0.36 2.508,-1.032 l -0.636,-0.744 c -0.468,0.516 -1.092,0.768 -1.836,0.768 -1.26,0 -2.16,-0.744 -2.304,-1.86 h 5.16 c 0.012,-0.108 0.024,-0.252 0.024,-0.348 z m -3.144,-2.304 c 1.116,0 1.92,0.756 2.04,1.824 h -4.08 c 0.12,-1.08 0.936,-1.824 2.04,-1.824 z M 126.579,159 h 1.26 l -3.816,-8.4 h -1.188 l -3.804,8.4 h 1.236 l 0.924,-2.1 h 4.464 z m -4.968,-3.06 1.812,-4.116 1.812,4.116 z m 8.417,-2.232 v -1.068 h -1.104 V 159 h 1.152 v -3.168 c 0,-1.392 0.768,-2.148 2.004,-2.148 0.084,0 0.168,0 0.264,0.012 v -1.116 c -1.116,0 -1.908,0.384 -2.316,1.128 z m 9.425,2.148 c 0,-1.956 -1.308,-3.276 -3.144,-3.276 -1.836,0 -3.192,1.356 -3.192,3.24 0,1.896 1.368,3.252 3.42,3.252 1.056,0 1.932,-0.36 2.508,-1.032 l -0.636,-0.744 c -0.468,0.516 -1.092,0.768 -1.836,0.768 -1.26,0 -2.16,-0.744 -2.304,-1.86 h 5.16 c 0.012,-0.108 0.024,-0.252 0.024,-0.348 z m -3.144,-2.304 c 1.116,0 1.92,0.756 2.04,1.824 h -4.08 c 0.12,-1.08 0.936,-1.824 2.04,-1.824 z m 6.884,-0.972 c -1.02,0 -1.968,0.288 -2.628,0.816 l 0.48,0.864 c 0.492,-0.42 1.26,-0.684 2.016,-0.684 1.14,0 1.704,0.564 1.704,1.536 v 0.228 h -1.824 c -1.896,0 -2.556,0.84 -2.556,1.86 0,1.104 0.912,1.872 2.352,1.872 0.996,0 1.704,-0.336 2.088,-0.912 V 159 h 1.092 v -3.84 c 0,-1.74 -0.984,-2.58 -2.724,-2.58 z m -0.264,5.604 c -0.876,0 -1.404,-0.396 -1.404,-1.032 0,-0.54 0.324,-0.984 1.464,-0.984 h 1.776 v 0.888 c -0.288,0.732 -0.972,1.128 -1.836,1.128 z" id="path62" inkscape:connector-curvature="0" style="fill:#7cc2b8"></path><rect x="211.5" y="195.5" width="39" height="67" rx="1.5" id="rect64" style="stroke:#d74276"></rect><path d="m 221.743,221.74 c -1.746,0 -2.904,1.17 -2.904,2.736 0,1.584 1.146,2.76 2.88,2.76 0.474,0 1.008,-0.102 1.374,-0.288 l -0.192,-0.552 c -0.378,0.186 -0.804,0.264 -1.182,0.264 -1.332,0 -2.208,-0.906 -2.208,-2.184 0,-1.254 0.894,-2.166 2.232,-2.166 1.332,0 2.232,0.84 2.232,2.058 0,0.696 -0.168,1.014 -0.444,1.014 -0.162,0 -0.288,-0.096 -0.288,-0.384 v -1.944 h -0.816 v 0.354 c -0.216,-0.258 -0.528,-0.396 -0.924,-0.396 -0.78,0 -1.386,0.612 -1.386,1.512 0,0.906 0.612,1.518 1.386,1.518 0.474,0 0.816,-0.186 1.026,-0.522 0.126,0.342 0.414,0.522 0.822,0.522 0.738,0 1.23,-0.612 1.23,-1.686 0,-1.506 -1.152,-2.616 -2.838,-2.616 z m -0.054,3.612 c -0.438,0 -0.744,-0.312 -0.744,-0.828 0,-0.51 0.306,-0.816 0.744,-0.816 0.432,0 0.75,0.294 0.75,0.816 0,0.528 -0.318,0.828 -0.75,0.828 z m 4.453,-2.154 v -0.426 h -0.894 V 226 h 0.936 v -1.524 c 0,-0.618 0.342,-0.9 0.858,-0.9 0.072,0 0.132,0.006 0.21,0.012 v -0.864 c -0.498,0 -0.882,0.162 -1.11,0.474 z m 2.135,-0.876 c 0.348,0 0.582,-0.228 0.582,-0.54 0,-0.288 -0.234,-0.504 -0.582,-0.504 -0.348,0 -0.582,0.228 -0.582,0.522 0,0.294 0.234,0.522 0.582,0.522 z M 227.809,226 h 0.936 v -3.228 h -0.936 z m 4.247,-3.228 v 0.414 c -0.246,-0.312 -0.618,-0.462 -1.068,-0.462 -0.894,0 -1.614,0.618 -1.614,1.56 0,0.942 0.72,1.56 1.614,1.56 0.42,0 0.774,-0.132 1.02,-0.402 v 0.138 c 0,0.582 -0.288,0.882 -0.948,0.882 -0.414,0 -0.864,-0.144 -1.14,-0.366 l -0.372,0.672 c 0.378,0.294 0.972,0.444 1.584,0.444 1.164,0 1.812,-0.552 1.812,-1.752 v -2.688 z m -0.882,2.304 c -0.492,0 -0.852,-0.318 -0.852,-0.792 0,-0.474 0.36,-0.792 0.852,-0.792 0.492,0 0.846,0.318 0.846,0.792 0,0.474 -0.354,0.792 -0.846,0.792 z m 4.603,-2.352 c -0.414,0 -0.774,0.132 -1.026,0.384 v -1.56 h -0.936 V 226 h 0.936 v -1.596 c 0,-0.594 0.324,-0.87 0.774,-0.87 0.414,0 0.654,0.24 0.654,0.762 V 226 h 0.936 v -1.848 c 0,-0.984 -0.576,-1.428 -1.338,-1.428 z m 4.016,2.46 c -0.102,0.078 -0.24,0.12 -0.378,0.12 -0.252,0 -0.402,-0.15 -0.402,-0.426 v -1.314 h 0.804 v -0.72 h -0.804 v -0.786 h -0.936 v 0.786 h -0.498 v 0.72 h 0.498 v 1.326 c 0,0.768 0.444,1.158 1.206,1.158 0.288,0 0.57,-0.066 0.762,-0.204 z m 0.599,-0.498 h 1.698 v -0.75 h -1.698 z m -19.224,4.038 c -0.402,0 -0.732,0.126 -0.972,0.39 v -1.566 H 219.26 V 232 h 0.894 v -0.372 c 0.234,0.282 0.582,0.42 1.014,0.42 0.906,0 1.608,-0.648 1.608,-1.662 0,-1.014 -0.702,-1.662 -1.608,-1.662 z m -0.162,2.556 c -0.468,0 -0.822,-0.336 -0.822,-0.894 0,-0.558 0.354,-0.894 0.822,-0.894 0.468,0 0.822,0.336 0.822,0.894 0,0.558 -0.354,0.894 -0.822,0.894 z m 3.933,0.768 c 1.026,0 1.77,-0.69 1.77,-1.662 0,-0.972 -0.744,-1.662 -1.77,-1.662 -1.026,0 -1.776,0.69 -1.776,1.662 0,0.972 0.75,1.662 1.776,1.662 z m 0,-0.768 c -0.468,0 -0.828,-0.336 -0.828,-0.894 0,-0.558 0.36,-0.894 0.828,-0.894 0.468,0 0.822,0.336 0.822,0.894 0,0.558 -0.354,0.894 -0.822,0.894 z m 4.225,-0.096 c -0.102,0.078 -0.24,0.12 -0.378,0.12 -0.252,0 -0.402,-0.15 -0.402,-0.426 v -1.314 h 0.804 v -0.72 h -0.804 v -0.786 h -0.936 v 0.786 h -0.498 v 0.72 h 0.498 v 1.326 c 0,0.768 0.444,1.158 1.206,1.158 0.288,0 0.57,-0.066 0.762,-0.204 z m 2.537,0 c -0.102,0.078 -0.24,0.12 -0.378,0.12 -0.252,0 -0.402,-0.15 -0.402,-0.426 v -1.314 h 0.804 v -0.72 h -0.804 v -0.786 h -0.936 v 0.786 h -0.498 v 0.72 h 0.498 v 1.326 c 0,0.768 0.444,1.158 1.206,1.158 0.288,0 0.57,-0.066 0.762,-0.204 z m 2.214,0.864 c 1.026,0 1.77,-0.69 1.77,-1.662 0,-0.972 -0.744,-1.662 -1.77,-1.662 -1.026,0 -1.776,0.69 -1.776,1.662 0,0.972 0.75,1.662 1.776,1.662 z m 0,-0.768 c -0.468,0 -0.828,-0.336 -0.828,-0.894 0,-0.558 0.36,-0.894 0.828,-0.894 0.468,0 0.822,0.336 0.822,0.894 0,0.558 -0.354,0.894 -0.822,0.894 z m 6.53,-2.556 c -0.486,0 -0.906,0.198 -1.164,0.528 -0.228,-0.354 -0.612,-0.528 -1.062,-0.528 -0.414,0 -0.774,0.144 -1.014,0.42 v -0.372 h -0.894 V 232 h 0.936 v -1.62 c 0,-0.576 0.294,-0.846 0.708,-0.846 0.39,0 0.612,0.24 0.612,0.762 V 232 h 0.936 v -1.62 c 0,-0.576 0.294,-0.846 0.714,-0.846 0.378,0 0.612,0.24 0.612,0.762 V 232 h 0.936 v -1.848 c 0,-0.984 -0.552,-1.428 -1.32,-1.428 z" id="path66" inkscape:connector-curvature="0" style="fill:#d74276"></path><rect x="7.5" y="195.5" width="39" height="67" rx="1.5" id="rect68" style="stroke:#d74276"></rect><path d="m 21.146,221.74 c -1.7462,0 -2.9042,1.17 -2.9042,2.736 0,1.584 1.146,2.76 2.8802,2.76 0.474,0 1.008,-0.102 1.374,-0.288 l -0.192,-0.552 c -0.378,0.186 -0.804,0.264 -1.182,0.264 -1.3322,0 -2.2082,-0.906 -2.2082,-2.184 0,-1.254 0.894,-2.166 2.2322,-2.166 1.332,0 2.232,0.84 2.232,2.058 0,0.696 -0.168,1.014 -0.444,1.014 -0.162,0 -0.288,-0.096 -0.288,-0.384 v -1.944 H 21.83 v 0.354 c -0.216,-0.258 -0.528,-0.396 -0.9242,-0.396 -0.78,0 -1.386,0.612 -1.386,1.512 0,0.906 0.612,1.518 1.386,1.518 0.4742,0 0.8162,-0.186 1.0262,-0.522 0.126,0.342 0.414,0.522 0.822,0.522 0.738,0 1.23,-0.612 1.23,-1.686 0,-1.506 -1.152,-2.616 -2.838,-2.616 z m -0.054,3.612 c -0.4382,0 -0.7442,-0.312 -0.7442,-0.828 0,-0.51 0.306,-0.816 0.7442,-0.816 0.432,0 0.75,0.294 0.75,0.816 0,0.528 -0.318,0.828 -0.75,0.828 z M 24.651,226 h 0.936 v -4.452 h -0.936 z m 4.966,-1.602 c 0,-1.038 -0.732,-1.674 -1.68,-1.674 -0.984,0 -1.722,0.696 -1.722,1.662 0,0.96 0.726,1.662 1.842,1.662 0.582,0 1.032,-0.18 1.332,-0.522 l -0.498,-0.54 c -0.222,0.21 -0.468,0.312 -0.81,0.312 -0.492,0 -0.834,-0.246 -0.924,-0.648 h 2.442 c 0.006,-0.078 0.018,-0.18 0.018,-0.252 z m -1.674,-0.966 c 0.42,0 0.726,0.264 0.792,0.672 h -1.59 c 0.066,-0.414 0.372,-0.672 0.798,-0.672 z m 3.324,-0.726 c 0,-0.318 0.15,-0.468 0.426,-0.468 0.144,0 0.276,0.042 0.378,0.114 l 0.246,-0.678 c -0.174,-0.12 -0.45,-0.174 -0.714,-0.174 -0.804,0 -1.248,0.474 -1.248,1.2 v 0.144 h -0.498 v 0.72 h 0.498 V 226 h 0.936 v -2.436 h 0.804 v -0.72 h -0.828 z m 3.124,2.478 c -0.102,0.078 -0.24,0.12 -0.378,0.12 -0.252,0 -0.402,-0.15 -0.402,-0.426 v -1.314 h 0.804 v -0.72 h -0.804 v -0.786 h -0.936 v 0.786 h -0.498 v 0.72 h 0.498 v 1.326 c 0,0.768 0.444,1.158 1.206,1.158 0.288,0 0.57,-0.066 0.762,-0.204 z m 0.599,-0.498 h 1.698 v -0.75 H 34.99 Z m -16.8219,4.038 c -0.402,0 -0.732,0.126 -0.972,0.39 v -1.566 h -0.936 V 232 h 0.894 v -0.372 c 0.234,0.282 0.582,0.42 1.014,0.42 0.906,0 1.608,-0.648 1.608,-1.662 0,-1.014 -0.702,-1.662 -1.608,-1.662 z m -0.162,2.556 c -0.468,0 -0.822,-0.336 -0.822,-0.894 0,-0.558 0.354,-0.894 0.822,-0.894 0.468,0 0.822,0.336 0.822,0.894 0,0.558 -0.354,0.894 -0.822,0.894 z m 3.9329,0.768 c 1.026,0 1.77,-0.69 1.77,-1.662 0,-0.972 -0.744,-1.662 -1.77,-1.662 -1.0263,0 -1.7763,0.69 -1.7763,1.662 0,0.972 0.75,1.662 1.7763,1.662 z m 0,-0.768 c -0.468,0 -0.828,-0.336 -0.828,-0.894 0,-0.558 0.36,-0.894 0.828,-0.894 0.468,0 0.822,0.336 0.822,0.894 0,0.558 -0.354,0.894 -0.822,0.894 z m 4.225,-0.096 c -0.102,0.078 -0.24,0.12 -0.378,0.12 -0.252,0 -0.402,-0.15 -0.402,-0.426 v -1.314 h 0.804 v -0.72 h -0.804 v -0.786 h -0.936 v 0.786 H 23.95 v 0.72 h 0.498 v 1.326 c 0,0.768 0.444,1.158 1.206,1.158 0.288,0 0.57,-0.066 0.762,-0.204 z m 2.537,0 c -0.102,0.078 -0.24,0.12 -0.378,0.12 -0.252,0 -0.402,-0.15 -0.402,-0.426 v -1.314 h 0.804 v -0.72 h -0.804 v -0.786 h -0.936 v 0.786 h -0.498 v 0.72 h 0.498 v 1.326 c 0,0.768 0.444,1.158 1.206,1.158 0.288,0 0.57,-0.066 0.762,-0.204 z m 2.214,0.864 c 1.026,0 1.77,-0.69 1.77,-1.662 0,-0.972 -0.744,-1.662 -1.77,-1.662 -1.026,0 -1.776,0.69 -1.776,1.662 0,0.972 0.75,1.662 1.776,1.662 z m 0,-0.768 c -0.468,0 -0.828,-0.336 -0.828,-0.894 0,-0.558 0.36,-0.894 0.828,-0.894 0.468,0 0.822,0.336 0.822,0.894 0,0.558 -0.354,0.894 -0.822,0.894 z m 6.53,-2.556 c -0.486,0 -0.906,0.198 -1.164,0.528 -0.228,-0.354 -0.612,-0.528 -1.062,-0.528 -0.414,0 -0.774,0.144 -1.014,0.42 v -0.372 H 33.311 V 232 h 0.936 v -1.62 c 0,-0.576 0.294,-0.846 0.708,-0.846 0.39,0 0.612,0.24 0.612,0.762 V 232 h 0.936 v -1.62 c 0,-0.576 0.294,-0.846 0.714,-0.846 0.378,0 0.612,0.24 0.612,0.762 V 232 h 0.936 v -1.848 c 0,-0.984 -0.552,-1.428 -1.32,-1.428 z" id="path70" inkscape:connector-curvature="0" style="fill:#d74276"></path><rect x="0.75" y="0.75" width="256.5" height="299.5" rx="2.25" id="rect72" style="stroke:#000000;stroke-width:1.5"></rect></svg> 