<svg xmlns="http://www.w3.org/2000/svg" width="4347px" height="1022px" viewBox="0 0 4347 1022">
    <!-- Generator: Sketch 49.3 (51167) - http://www.bohemiancoding.com/sketch -->
    <title>aliyun</title>
    <desc>Created with Sketch.</desc>
    <defs></defs>
    <g id="Page-1" stroke="none" stroke-width="1" fill="none" fill-rule="evenodd">
        <g id="aliyun" fill="#000000" fill-rule="nonzero">
            <path d="M2403.66217,909.881059 C2548.48576,906.29885 2600.68366,805.485257 2600.68366,716.953523 L2600.68366,186.274863 L2620.64168,186.274863 L2640.5997,105.931034 L2210.22289,105.931034 L2230.18091,186.274863 L2519.82809,186.274863 L2519.82809,708.765617 C2519.82809,785.015492 2463.53623,833.631184 2383.1924,833.631184 L2403.66217,909.881059 L2403.66217,909.881059 Z" id="Shape"></path>
            <path d="M2420.03798,729.235382 C2439.996,709.277361 2448.18391,681.131434 2448.18391,636.609695 L2448.18391,258.430785 L2214.82859,258.430785 L2214.82859,757.381309 L2343.78811,757.381309 C2375.51624,757.381309 2403.66217,749.193403 2420.03798,729.235382 Z M2295.17241,672.943528 L2295.17241,338.774613 L2367.32834,338.774613 L2367.32834,628.421789 C2367.32834,660.661669 2355.04648,672.431784 2326.90055,672.431784 L2295.17241,672.431784 L2295.17241,672.943528 Z M1888.84758,101.325337 L1888.84758,909.881059 L1969.1914,909.881059 L1969.1914,186.274863 L2065.91104,186.274863 L2005.52524,439.588206 C2029.57721,459.546227 2074.09895,511.744128 2074.09895,600.275862 C2074.09895,688.807596 2021.90105,721.047476 2005.52524,729.235382 L2005.52524,813.673163 C2049.53523,809.57921 2158.53673,749.193403 2158.53673,604.369815 C2158.53673,515.838081 2126.29685,455.452274 2098.15092,415.536232 L2170.30685,101.837081 L1888.84758,101.325337 L1888.84758,101.325337 Z M2794.12294,829.537231 L2778.25887,909.881059 L3494.18891,909.881059 L3473.71914,829.537231 L3175.88406,829.537231 L3175.88406,729.235382 L3449.66717,729.235382 L3429.70914,648.891554 L3172.30185,648.891554 L3172.30185,548.077961 L3357.04148,548.077961 C3445.57321,548.077961 3489.58321,504.067966 3489.58321,415.536232 L3489.58321,101.837081 L2777.74713,101.837081 L2777.74713,548.077961 L3091.44628,548.077961 L3091.44628,644.797601 L2834.03898,644.797601 L2814.08096,725.141429 L3087.86407,725.141429 L3087.86407,829.537231 L2794.12294,829.537231 Z M3175.88406,366.92054 L3364.71764,366.92054 L3344.75962,286.576712 L3175.88406,286.576712 L3175.88406,185.763118 L3409.23938,185.763118 L3409.23938,410.930535 C3409.23938,451.358321 3393.37531,467.222389 3361.13543,467.222389 L3175.88406,467.222389 L3175.88406,366.92054 Z M2862.18491,467.734133 L2862.18491,186.274863 L3095.54023,186.274863 L3095.54023,287.088456 L2926.66467,287.088456 L2906.70665,366.92054 L3095.54023,366.92054 L3095.54023,467.734133 L2862.18491,467.734133 L2862.18491,467.734133 Z M4269.993,101.325337 L3707.07446,101.325337 L3687.11644,185.763118 L4290.46277,185.763118 L4269.993,101.325337 L4269.993,101.325337 Z M3674.83458,902.204898 L3670.74063,910.392804 L4221.88905,910.392804 C4254.12893,910.392804 4278.18091,902.204898 4294.04498,882.246877 C4309.90905,858.194903 4306.32684,830.048976 4298.13893,813.673163 C4289.95102,773.245377 4257.71114,632.515742 4250.03498,612.557721 L4250.03498,608.463768 L4165.5972,608.463768 L4169.69115,616.651674 C4173.78511,636.609695 4210.11894,781.433283 4217.7951,830.048976 L3775.13643,830.048976 C3795.09445,737.423289 3831.42829,576.735633 3851.38631,499.974013 L4346.24288,499.974013 L4326.28486,419.630185 L3650.27086,419.630185 L3630.31284,499.974013 L3766.94853,499.974013 C3751.08446,572.129935 3702.98051,773.245377 3674.83458,902.204898 L3674.83458,902.204898 Z M295.276362,782.968516 C261.50125,775.292354 235.914043,746.634683 235.914043,710.30085 L235.914043,311.14043 C238.472764,274.806597 262.012994,246.148926 295.276362,238.472764 L665.77911,158.128936 L704.671664,5.68434189e-14 L274.294853,5.68434189e-14 C121.795102,0.511744 0,122.306847 0,272.75962 L0,744.587706 C0,895.04048 124.353823,1019.3943 274.806597,1019.3943 L705.183408,1019.3943 L666.290855,861.265367 L295.276362,782.968516 L295.276362,782.968516 Z M1373.52124,0.511744 L940.585707,0.511744 L979.478261,158.64068 L1349.98101,238.984508 C1383.75612,246.66067 1409.34333,275.318341 1409.34333,311.652174 L1409.34333,710.812594 C1406.78461,747.146427 1383.24438,775.804098 1349.98101,783.48026 L979.478261,863.824088 L940.585707,1021.95302 L1373.52124,1021.95302 C1523.97401,1021.95302 1648.32784,900.157921 1648.32784,747.146427 L1648.32784,272.75962 C1645.25737,122.306846 1523.46227,0.511744 1373.52124,0.511744 L1373.52124,0.511744 Z" id="Shape"></path>
            <polygon id="Shape" points="665.77911 490.250875 982.036982 490.250875 982.036982 529.143428 665.77911 529.143428 665.77911 490.250875"></polygon>
        </g>
    </g>
</svg>
