<svg height="64" viewBox="0 0 64 64" width="64" xmlns="http://www.w3.org/2000/svg" xmlns:xlink="http://www.w3.org/1999/xlink">    <linearGradient id="SeamlessExperienceA" x1="50%" x2="50%" y1="50%" y2="100%">        <stop offset="0" stop-color="#e02020" stop-opacity="0"></stop>        <stop offset="1" stop-color="#e02020" stop-opacity=".2"></stop>    </linearGradient>    <g fill="none" fill-rule="evenodd">        <g transform="translate(4 9)">            <circle cx="11.666667" cy="23.333333" fill="#ffae00" r="11.666667"></circle>            <path d="m11.666667 25.666667h16.333333v9.333333h-16.333333z" fill="#ffae00"></path>            <path d="m28 25.666667h16.333333v9.333333h-16.333333z" fill="#ec6c00"></path>            <circle cx="28" cy="17.5" fill="#fed305" r="17.5"></circle>            <path d="m11.4953478 11.6678989c.0570083-.0008205.1141155-.0012322.1713189-.0012322 6.443322 0 11.6666666 5.2233446 11.6666666 11.6666666 0 3.6990821-1.7215393 6.9960772-4.4071262 9.1334936-5.0516825-3.0692021-8.4262071-8.6239333-8.4262071-14.9668269 0-2.0449128.3507416-4.0079056.9953478-5.8321011z" fill="#ec6c00"></path>            <circle cx="44.333333" cy="23.333333" fill="#ec6c00" r="11.666667"></circle>            <path d="m44.5046522 11.6678989c.6446062 1.8241955.9953478 3.7871883.9953478 5.8321011 0 6.3428936-3.3745246 11.8976248-8.4262071 14.9668269-2.6855869-2.1374164-4.4071262-5.4344115-4.4071262-9.1334936 0-6.443322 5.2233446-11.6666666 11.6666666-11.6666666.0572034 0 .1143106.0004117.1713189.0012322z" fill="#ffae00"></path>        </g>        <rect fill="#000" fill-opacity=".1" height="2" rx="1" width="52" x="6" y="50"></rect>        <path d="m7 50h30c.5522847 0 1 .4477153 1 1s-.4477153 1-1 1h-30c-.55228475 0-1-.4477153-1-1s.44771525-1 1-1z" fill="#289dcc"></path>        <path d="m15.6666667 44c-6.44332211 0-11.6666667-5.2233446-11.6666667-11.6666667 0-6.3861187 5.13101128-11.5738255 11.4953478-11.6654344 2.4020311-6.7975992 8.8845819-11.6678989 16.5046522-11.6678989s14.1026211 4.8702997 16.5046522 11.6678989c6.3643365.0916089 11.4953478 5.2793157 11.4953478 11.6654344 0 6.4433221-5.2233446 11.6666667-11.6666667 11.6666667z" fill="url(#SeamlessExperienceA)"></path>    </g></svg>
